<svg width="69.662354" height="70.000000" viewBox="0 0 69.6624 70" fill="none" xmlns="http://www.w3.org/2000/svg" xmlns:xlink="http://www.w3.org/1999/xlink">
	<desc>
			Created with Pixso.
	</desc>
	<defs/>
	<ellipse id="BG" cx="34.831299" cy="35.000000" rx="34.831188" ry="35.000000" fill="#5CBA99" fill-opacity="1.000000"/>
	<path id="hr" d="M46.59 43.12L44.9 43.12L44.9 31.6L46.39 31.6L46.39 35.52C46.71 35.12 47.1 34.81 47.58 34.59C48.07 34.36 48.62 34.25 49.25 34.25Q50.14 34.25 50.75 34.54C51.16 34.73 51.48 34.98 51.74 35.3C51.99 35.61 52.19 35.95 52.32 36.32C52.45 36.68 52.54 37.04 52.59 37.4C52.64 37.75 52.66 38.06 52.66 38.32L52.66 43.12L50.97 43.12L50.97 38.88C50.97 38.54 50.94 38.2 50.88 37.84C50.83 37.49 50.72 37.16 50.57 36.85C50.41 36.55 50.19 36.3 49.9 36.12C49.62 35.93 49.24 35.84 48.78 35.84Q48.34 35.84 47.96 35.98Q47.82 36.04 47.69 36.11C47.36 36.29 47.09 36.58 46.89 37C46.69 37.4 46.59 37.94 46.59 38.63L46.59 43.12ZM56.44 43.12L54.75 43.12L54.75 34.48L56.24 34.48L56.24 35.86C56.45 35.48 56.72 35.18 57.04 34.97C57.36 34.73 57.74 34.57 58.17 34.49C58.61 34.41 59.02 34.41 59.41 34.48L59.41 36.05C59.13 35.98 58.82 35.96 58.48 35.99Q58.18 36.01 57.92 36.11Q57.71 36.19 57.52 36.32C57.12 36.58 56.84 36.92 56.68 37.36C56.52 37.79 56.44 38.26 56.44 38.76L56.44 43.12Z" fill="#FFFFFF" fill-opacity="1.000000" fill-rule="evenodd"/>
	<path id="24" d="M25.82 44.18L14.13 44.18L14.14 41.94L21.67 35.2C22.28 34.66 22.69 34.14 22.9 33.66C23.13 33.18 23.24 32.69 23.24 32.2Q23.24 31.33 22.89 30.64Q22.68 30.22 22.34 29.87Q21.99 29.51 21.57 29.29Q20.9 28.94 20.05 28.94C19.41 28.94 18.84 29.09 18.34 29.39Q17.95 29.63 17.65 29.94Q17.37 30.23 17.17 30.58Q17.01 30.85 16.92 31.14Q16.75 31.63 16.76 32.19L14.19 32.19Q14.19 30.6 14.87 29.39Q14.91 29.32 14.95 29.25C15.45 28.4 16.15 27.74 17.04 27.27C17.93 26.79 18.95 26.55 20.1 26.55C21.18 26.55 22.16 26.8 23.02 27.29C23.89 27.78 24.57 28.45 25.06 29.31C25.57 30.16 25.82 31.14 25.82 32.24Q25.82 33.41 25.51 34.25C25.3 34.8 24.99 35.32 24.57 35.79C24.16 36.26 23.64 36.77 23.01 37.32L18.01 41.79L25.82 41.79L25.82 44.18ZM37.37 44.19L34.83 44.19L34.83 41.18L27.03 41.18L27.03 38.8L32.65 26.91L35.51 26.91L29.9 38.8L34.83 38.8L34.83 34.12L37.37 34.12L37.37 38.8L39.09 38.8L39.09 41.18L37.37 41.18L37.37 44.19Z" fill="#FFFFFF" fill-opacity="1.000000" fill-rule="evenodd"/>
</svg>
