<?xml version="1.0" encoding="UTF-8"?>
<svg xmlns="http://www.w3.org/2000/svg" xmlns:xlink="http://www.w3.org/1999/xlink" width="49px" height="49px" viewBox="0 0 49 49" version="1.1">
<g id="surface1">
<path style=" stroke:none;fill-rule:nonzero;fill:rgb(0%,0%,0%);fill-opacity:1;" d="M 22.300781 0.09375 C 17.570312 0.554688 13.207031 2.296875 9.378906 5.246094 C 7.511719 6.679688 5.089844 9.378906 3.695312 11.578125 C 3.089844 12.527344 1.914062 14.9375 1.492188 16.085938 C 1.023438 17.371094 0.515625 19.339844 0.269531 20.863281 C -0.0273438 22.730469 -0.0273438 26.269531 0.269531 28.136719 C 0.699219 30.777344 1.378906 32.902344 2.535156 35.265625 C 3.800781 37.839844 5.109375 39.667969 7.214844 41.785156 C 9.332031 43.890625 11.160156 45.199219 13.734375 46.464844 C 16.097656 47.621094 18.222656 48.300781 20.863281 48.730469 C 22.730469 49.027344 26.269531 49.027344 28.136719 48.730469 C 30.777344 48.300781 32.902344 47.621094 35.265625 46.464844 C 37.839844 45.199219 39.667969 43.890625 41.785156 41.785156 C 43.890625 39.667969 45.199219 37.839844 46.464844 35.265625 C 47.304688 33.554688 47.726562 32.433594 48.1875 30.710938 C 48.789062 28.414062 48.933594 27.160156 48.933594 24.5 C 48.933594 21.839844 48.789062 20.585938 48.1875 18.289062 C 47.726562 16.566406 47.304688 15.445312 46.464844 13.734375 C 45.199219 11.160156 43.890625 9.332031 41.785156 7.214844 C 39.667969 5.109375 37.839844 3.800781 35.265625 2.535156 C 32.914062 1.378906 30.730469 0.6875 28.183594 0.285156 C 26.777344 0.0664062 23.640625 -0.0390625 22.300781 0.09375 Z M 27.5625 6.402344 C 31.390625 7.074219 34.730469 8.804688 37.46875 11.53125 C 40.261719 14.328125 41.984375 17.714844 42.65625 21.722656 C 42.882812 23.101562 42.882812 25.898438 42.65625 27.273438 C 41.984375 31.285156 40.261719 34.671875 37.46875 37.46875 C 34.671875 40.261719 31.285156 41.984375 27.277344 42.65625 C 25.898438 42.882812 23.101562 42.882812 21.726562 42.65625 C 17.714844 41.984375 14.328125 40.261719 11.53125 37.46875 C 8.738281 34.671875 7.015625 31.285156 6.34375 27.273438 C 6.117188 25.898438 6.117188 23.101562 6.34375 21.722656 C 7.265625 16.222656 10.328125 11.65625 15.027344 8.785156 C 17.359375 7.359375 19.707031 6.59375 22.96875 6.183594 C 23.753906 6.085938 26.5 6.21875 27.5625 6.402344 Z M 27.5625 6.402344 "/>
<path style=" stroke:none;fill-rule:nonzero;fill:rgb(0%,0%,0%);fill-opacity:1;" d="M 23.257812 8.238281 C 15.246094 8.824219 8.796875 15.3125 8.238281 23.371094 C 7.609375 32.347656 14.394531 40.136719 23.371094 40.761719 C 32.347656 41.390625 40.136719 34.605469 40.761719 25.628906 C 41.09375 20.902344 39.382812 16.335938 36.023438 12.976562 C 32.636719 9.589844 28.050781 7.886719 23.257812 8.238281 Z M 26.460938 10.429688 C 27.324219 10.554688 28.683594 10.890625 29.015625 11.0625 C 29.484375 11.300781 29.601562 11.675781 29.484375 12.574219 C 29.21875 14.566406 28.441406 16.191406 27.238281 17.304688 C 24.214844 20.058594 20.183594 17.589844 19.515625 12.574219 C 19.398438 11.675781 19.515625 11.300781 19.984375 11.0625 C 20.296875 10.902344 21.667969 10.554688 22.441406 10.441406 C 23.246094 10.328125 25.65625 10.316406 26.460938 10.429688 Z M 15.886719 14.066406 C 16.097656 14.183594 17.035156 15.320312 17.582031 16.125 C 19.0625 18.335938 19.371094 20.375 18.421875 21.8125 C 17.339844 23.4375 14.058594 23.953125 11.523438 22.902344 C 10.988281 22.679688 10.824219 22.566406 10.671875 22.28125 C 10.5 21.953125 10.5 21.878906 10.613281 21.324219 C 10.910156 19.839844 11.628906 18.175781 12.574219 16.757812 C 13.234375 15.761719 14.488281 14.308594 14.851562 14.105469 C 15.121094 13.953125 15.636719 13.933594 15.886719 14.066406 Z M 34.148438 14.105469 C 34.511719 14.308594 35.765625 15.761719 36.425781 16.757812 C 37.371094 18.175781 38.089844 19.839844 38.386719 21.324219 C 38.5 21.878906 38.5 21.953125 38.328125 22.28125 C 38.175781 22.566406 38.011719 22.679688 37.476562 22.902344 C 34.941406 23.953125 31.660156 23.4375 30.578125 21.8125 C 29.628906 20.375 29.9375 18.335938 31.417969 16.125 C 31.925781 15.371094 32.882812 14.191406 33.09375 14.078125 C 33.324219 13.945312 33.886719 13.953125 34.148438 14.105469 Z M 25.648438 20.59375 C 27.5625 21.167969 28.796875 23.101562 28.519531 25.082031 C 28.269531 26.824219 26.824219 28.269531 25.082031 28.519531 C 22.414062 28.894531 20.105469 26.585938 20.480469 23.917969 C 20.824219 21.503906 23.324219 19.898438 25.648438 20.59375 Z M 36.875 25.878906 C 37.890625 26.222656 38.15625 26.367188 38.328125 26.699219 C 38.519531 27.074219 38.511719 27.273438 38.234375 28.308594 C 37.714844 30.234375 36.550781 32.328125 35.085938 33.972656 C 34.269531 34.875 34.070312 35.019531 33.609375 35.027344 C 33.152344 35.027344 33 34.921875 32.367188 34.136719 C 30.796875 32.203125 30.042969 30.578125 30.042969 29.132812 C 30.042969 28.757812 30.070312 28.328125 30.109375 28.175781 C 30.300781 27.363281 30.980469 26.578125 31.871094 26.136719 C 32.328125 25.90625 32.597656 25.8125 33.449219 25.609375 C 33.554688 25.582031 34.203125 25.582031 34.882812 25.601562 C 35.90625 25.628906 36.261719 25.675781 36.875 25.878906 Z M 16.070312 25.898438 C 17.523438 26.261719 18.527344 27.101562 18.863281 28.25 C 19.113281 29.113281 18.890625 30.664062 18.355469 31.726562 C 18.050781 32.339844 17.148438 33.679688 16.613281 34.328125 C 15.628906 35.535156 15.226562 35.515625 14.039062 34.261719 C 12.652344 32.789062 11.609375 31.027344 10.957031 29.054688 C 10.5 27.6875 10.441406 27.121094 10.710938 26.777344 C 11.378906 25.933594 14.296875 25.457031 16.070312 25.898438 Z M 26.050781 30.988281 C 26.738281 31.304688 27.324219 31.765625 27.859375 32.414062 C 28.921875 33.695312 29.859375 36.789062 29.429688 37.601562 C 29.226562 37.992188 28.960938 38.117188 27.609375 38.433594 C 26.546875 38.683594 26.320312 38.703125 24.5 38.703125 C 22.683594 38.703125 22.453125 38.683594 21.390625 38.433594 C 20.039062 38.117188 19.773438 37.992188 19.570312 37.601562 C 19.140625 36.789062 20.078125 33.695312 21.140625 32.414062 C 21.847656 31.574219 22.769531 30.941406 23.609375 30.71875 C 24.28125 30.558594 25.390625 30.671875 26.050781 30.988281 Z M 26.050781 30.988281 "/>
</g>
</svg>
