<svg width="32.343750" height="46.000000" viewBox="0 0 32.3438 46" fill="none" xmlns="http://www.w3.org/2000/svg" xmlns:xlink="http://www.w3.org/1999/xlink">
	<desc>
			Created with Pixso.
	</desc>
	<defs/>
	<path id="Vector" d="M32.34 18.19C32.34 17.85 32.21 17.51 31.97 17.26L21.19 5.81C20.94 5.54 20.58 5.39 20.21 5.39L6.73 5.39C6.35 5.39 5.98 5.55 5.73 5.84L0.34 11.9C0.12 12.15 0 12.47 0 12.8L0 36.56C0 37.6 0.39 38.54 1.03 39.26C0.39 39.97 0 40.92 0 41.95C0 44.18 1.81 46 4.04 46L28.3 46C30.53 46 32.34 44.18 32.34 41.95C32.34 40.92 31.95 39.97 31.31 39.26C31.95 38.54 32.34 37.6 32.34 36.56L32.34 18.19ZM16.17 37.91C13.94 37.91 12.12 36.09 12.12 33.87C12.12 33.31 12.28 32.3 13.65 29.94C14.35 28.74 15.03 27.75 15.06 27.71C15.31 27.35 15.72 27.13 16.17 27.13C16.61 27.13 17.02 27.34 17.28 27.71C17.3 27.75 17.99 28.74 18.68 29.94C20.05 32.3 20.21 33.31 20.21 33.87C20.21 36.09 18.4 37.91 16.17 37.91ZM26.1 22.01C25.58 22.5 24.92 22.74 24.25 22.74C23.54 22.74 22.82 22.46 22.29 21.89L16.1 15.32C15.08 14.23 15.13 12.53 16.22 11.51C17.3 10.49 19.01 10.54 20.03 11.62L26.22 18.2C27.24 19.28 27.18 20.99 26.1 22.01Z" fill="#1E1B1B" fill-opacity="1.000000" fill-rule="nonzero"/>
	<path id="Vector" d="M14.82 33.87C14.82 34.61 15.42 35.21 16.17 35.21C16.91 35.21 17.51 34.61 17.51 33.87C17.5 33.45 16.94 32.28 16.17 30.97C15.39 32.28 14.83 33.46 14.82 33.87Z" fill="#1E1B1B" fill-opacity="1.000000" fill-rule="nonzero"/>
	<path id="Vector" d="M14.82 0L6.73 0C5.99 0 5.39 0.6 5.39 1.34L5.39 2.69L16.17 2.69L16.17 1.34C16.17 0.6 15.56 0 14.82 0Z" fill="#1E1B1B" fill-opacity="1.000000" fill-rule="nonzero"/>
</svg>
