<svg width="44.000000" height="38.500000" viewBox="0 0 44 38.5" fill="none" xmlns="http://www.w3.org/2000/svg" xmlns:xlink="http://www.w3.org/1999/xlink">
	<desc>
			Created with Pixso.
	</desc>
	<defs/>
	<path id="Vector" d="M38.5 1.83C38.5 0.82 37.67 0 36.66 0L29.33 0C28.32 0 27.5 0.82 27.5 1.83L27.5 5.5L38.5 5.5L38.5 1.83Z" fill="#1E1B1B" fill-opacity="1.000000" fill-rule="nonzero"/>
	<path id="Vector" d="M16.5 1.83C16.5 0.82 15.67 0 14.66 0L7.33 0C6.32 0 5.5 0.82 5.5 1.83L5.5 5.5L16.5 5.5L16.5 1.83Z" fill="#1E1B1B" fill-opacity="1.000000" fill-rule="nonzero"/>
	<path id="Vector" d="M0 7.33L0 34.83C0 35.84 0.82 36.66 1.83 36.66L5.5 36.66L5.5 38.5L9.16 38.5L9.16 36.66L34.83 36.66L34.83 38.5L38.5 38.5L38.5 36.66L42.16 36.66C43.17 36.66 44 35.84 44 34.83L44 7.33L0 7.33ZM14.66 33L18.33 22L12.83 22L25.66 11L22 22L27.5 22L14.66 33Z" fill="#1E1B1B" fill-opacity="1.000000" fill-rule="nonzero"/>
</svg>
