<svg width="42.000000" height="41.835938" viewBox="0 0 42 41.8359" fill="none" xmlns="http://www.w3.org/2000/svg" xmlns:xlink="http://www.w3.org/1999/xlink">
	<desc>
			Created with Pixso.
	</desc>
	<defs/>
	<path id="Vector" d="M32.97 6.97C31.6 6.97 30.42 6.12 29.93 4.92L27.07 4.92L27.07 2.46L29.93 2.46C30.42 1.25 31.6 0.41 32.97 0.41C34.78 0.41 36.25 1.88 36.25 3.69C36.25 5.5 34.78 6.97 32.97 6.97Z" fill="#1E1B1B" fill-opacity="1.000000" fill-rule="nonzero"/>
	<path id="Vector" d="M38.71 13.94C38.17 13.94 37.67 13.81 37.22 13.58L34.17 16.12C33.95 16.3 33.67 16.4 33.38 16.4L27.07 16.4L27.07 13.94L32.94 13.94L35.61 11.71C35.49 11.38 35.43 11.03 35.43 10.66C35.43 8.85 36.9 7.38 38.71 7.38C40.52 7.38 42 8.85 42 10.66C42 12.47 40.52 13.94 38.71 13.94Z" fill="#1E1B1B" fill-opacity="1.000000" fill-rule="nonzero"/>
	<path id="Vector" d="M38.71 24.19C37.34 24.19 36.16 23.34 35.67 22.14L27.07 22.14L27.07 19.68L35.67 19.68C36.16 18.48 37.34 17.63 38.71 17.63C40.52 17.63 42 19.1 42 20.91C42 22.72 40.52 24.19 38.71 24.19Z" fill="#1E1B1B" fill-opacity="1.000000" fill-rule="nonzero"/>
	<path id="Vector" d="M34.17 25.71L37.22 28.25C37.67 28.02 38.17 27.89 38.71 27.89C40.52 27.89 42 29.36 42 31.17C42 32.98 40.52 34.45 38.71 34.45C36.9 34.45 35.43 32.98 35.43 31.17C35.43 30.8 35.49 30.44 35.61 30.11L32.94 27.89L27.07 27.89L27.07 25.42L33.38 25.42C33.67 25.42 33.95 25.53 34.17 25.71Z" fill="#1E1B1B" fill-opacity="1.000000" fill-rule="nonzero"/>
	<path id="Vector" d="M32.97 34.86C34.78 34.86 36.25 36.33 36.25 38.14C36.25 39.95 34.78 41.42 32.97 41.42C31.6 41.42 30.42 40.57 29.93 39.37L27.07 39.37L27.07 36.91L29.93 36.91C30.42 35.71 31.6 34.86 32.97 34.86Z" fill="#1E1B1B" fill-opacity="1.000000" fill-rule="nonzero"/>
	<path id="Vector" d="M12.3 20.91C12.3 16.16 16.16 12.3 20.91 12.3C22.23 12.3 23.49 12.6 24.6 13.13L24.6 28.69C23.49 29.23 22.23 29.53 20.91 29.53C16.16 29.53 12.3 25.66 12.3 20.91Z" fill="#1E1B1B" fill-opacity="1.000000" fill-rule="nonzero"/>
	<path id="Vector" d="M23.37 41.83L18.45 41.83C17.77 41.83 17.22 41.28 17.22 40.6L17.22 39C14.91 38.53 12.7 37.61 10.73 36.31L9.6 37.44C9.12 37.92 8.34 37.92 7.86 37.44L4.38 33.96C3.9 33.48 3.9 32.7 4.38 32.22L5.51 31.09C4.21 29.12 3.3 26.91 2.83 24.6L1.23 24.6C0.55 24.6 0 24.05 0 23.37L0 18.45C0 17.77 0.55 17.22 1.23 17.22L2.83 17.22C3.3 14.91 4.21 12.7 5.51 10.73L4.38 9.6C4.15 9.37 4.02 9.06 4.02 8.73C4.02 8.41 4.15 8.09 4.38 7.86L7.86 4.38C8.34 3.9 9.12 3.9 9.6 4.38L10.73 5.51C12.7 4.21 14.91 3.3 17.22 2.83L17.22 1.23C17.22 0.55 17.77 0 18.45 0L23.37 0C24.05 0 24.6 0.55 24.6 1.23L24.6 10.47C23.45 10.06 22.21 9.84 20.91 9.84C14.81 9.84 9.84 14.81 9.84 20.91C9.84 27.02 14.81 31.99 20.91 31.99C22.21 31.99 23.45 31.76 24.6 31.35L24.6 40.6C24.6 41.28 24.05 41.83 23.37 41.83Z" fill="#1E1B1B" fill-opacity="1.000000" fill-rule="nonzero"/>
</svg>
