<svg width="36.835938" height="46.000000" viewBox="0 0 36.8359 46" fill="none" xmlns="http://www.w3.org/2000/svg" xmlns:xlink="http://www.w3.org/1999/xlink">
	<desc>
			Created with Pixso.
	</desc>
	<defs/>
	<path id="Vector" d="M21.56 8.08L15.27 8.08C13.31 10.31 10.85 12.03 8.08 13.11L8.08 21.36C8.08 28.33 12.12 34.58 18.41 37.44C24.71 34.58 28.75 28.33 28.75 21.36L28.75 13.11C25.98 12.04 23.52 10.32 21.56 8.08ZM25.66 19.67L17.27 28.06C17.01 28.32 16.66 28.45 16.32 28.45C15.97 28.45 15.63 28.32 15.36 28.06L11.17 23.87C10.65 23.34 10.65 22.49 11.17 21.96C11.7 21.43 12.55 21.43 13.08 21.96L16.32 25.2L23.75 17.77C24.28 17.24 25.13 17.24 25.66 17.77C26.18 18.29 26.18 19.15 25.66 19.67ZM35.48 6.28C31.59 6.28 28.05 4.15 26.24 0.71C26.01 0.27 25.55 0 25.05 0L11.78 0C11.28 0 10.82 0.27 10.59 0.71C8.77 4.15 5.24 6.28 1.34 6.28C0.6 6.28 0 6.89 0 7.63L0 21.36C0 26.87 1.72 32.14 4.98 36.59C8.24 41.04 12.75 44.27 18.01 45.93C18.14 45.97 18.28 46 18.41 46C18.55 46 18.69 45.97 18.82 45.93C24.08 44.27 28.58 41.04 31.85 36.59C35.11 32.14 36.83 26.87 36.83 21.36L36.83 7.63C36.83 6.89 36.22 6.28 35.48 6.28ZM31.44 21.29C31.44 29.55 26.53 36.93 18.93 40.1C18.77 40.17 18.59 40.2 18.41 40.2C18.24 40.2 18.06 40.17 17.89 40.1C10.3 36.93 5.39 29.55 5.39 21.29L5.39 12.1C5.39 11.52 5.76 11 6.31 10.82C9.17 9.88 11.69 8.15 13.6 5.82C13.85 5.51 14.24 5.32 14.64 5.32L22.18 5.32C22.6 5.32 23.08 5.64 23.23 5.82C25.13 8.15 27.65 9.88 30.51 10.82C30.91 10.95 31.21 11.25 31.35 11.62C31.35 11.63 31.35 11.63 31.36 11.63C31.39 11.73 31.41 11.82 31.43 11.92C31.43 11.93 31.43 11.94 31.43 11.95C31.44 12 31.44 12.05 31.44 12.1L31.44 21.29Z" fill="#1E1B1B" fill-opacity="1.000000" fill-rule="nonzero"/>
</svg>
