<svg width="48.000000" height="48.000000" viewBox="0 0 48 48" fill="none" xmlns="http://www.w3.org/2000/svg" xmlns:xlink="http://www.w3.org/1999/xlink">
	<desc>
			Created with Pixso.
	</desc>
	<defs/>
	<circle id="Circle" r="24.000000" transform="matrix(-1 -8.74228e-08 8.74228e-08 -1 24 24)" fill="#FFFFFF" fill-opacity="1.000000"/>
	<path id="Arrow" d="M16.57 25L20.52 28.94C20.91 29.34 20.91 29.96 20.52 30.36C20.12 30.75 19.5 30.75 19.1 30.36L13.44 24.7C13.05 24.31 13.05 23.68 13.44 23.29L19.1 17.63C19.5 17.24 20.12 17.24 20.52 17.63C20.91 18.03 20.91 18.65 20.52 19.05L16.57 23L34.28 23C34.84 23 35.28 23.43 35.28 24C35.28 24.56 34.84 25 34.28 25L16.57 25Z" fill="#1E1B1B" fill-opacity="1.000000" fill-rule="evenodd"/>
</svg>
