<svg width="225.598389" height="126.672852" viewBox="0 0 225.598 126.673" fill="none" xmlns="http://www.w3.org/2000/svg" xmlns:xlink="http://www.w3.org/1999/xlink">
	<desc>
			Created with Pixso.
	</desc>
	<defs>
		<clipPath id="clip482_1444">
			<rect id="logo-1 1" width="225.598495" height="126.672951" fill="white" fill-opacity="0"/>
		</clipPath>
	</defs>
	<rect id="logo-1 1" width="225.598495" height="126.672951" fill="#FFFFFF" fill-opacity="0"/>
	<g clip-path="url(#clip482_1444)">
		<path id="Vector" d="M78.05 56.06L82.12 56.06L82.12 72.53L78.05 72.53L78.05 56.06ZM83.75 66.33C83.75 62.26 86.29 59.81 90.09 59.81C93.9 59.81 96.44 62.26 96.44 66.33C96.44 70.41 93.99 72.88 90.09 72.88C86.2 72.88 83.75 70.5 83.75 66.33ZM92.4 66.33C92.4 64.09 91.53 62.77 90.13 62.77C88.73 62.77 87.87 64.04 87.87 66.33C87.87 68.63 88.73 69.88 90.13 69.88C91.53 69.88 92.43 68.63 92.43 66.35L92.4 66.33ZM98.06 73.38L102 73.38C102.17 73.8 102.49 74.15 102.89 74.38C103.29 74.61 103.75 74.7 104.2 74.64C105.76 74.64 106.58 73.81 106.58 72.57L106.58 70.29L106.59 70.29C106.25 71 105.71 71.59 105.03 71.98C104.35 72.38 103.57 72.56 102.78 72.5C99.8 72.5 97.82 70.24 97.82 66.33C97.82 62.43 99.71 60 102.9 60C103.7 59.96 104.5 60.16 105.18 60.59C105.86 61.02 106.4 61.65 106.7 62.39L106.59 62.39L106.59 60.1L110.62 60.1L110.62 72.44C110.62 75.42 107.99 77.28 104.1 77.28C100.57 77.27 98.32 75.66 98.09 73.39L98.06 73.38ZM106.59 66.33C106.59 64.35 105.68 63.09 104.23 63.09C102.78 63.09 101.89 64.36 101.89 66.33C101.89 68.31 102.77 69.48 104.23 69.48C105.69 69.48 106.59 68.4 106.59 66.33ZM112.24 66.33C112.24 62.26 114.77 59.81 118.58 59.81C122.39 59.81 124.93 62.26 124.93 66.33C124.93 70.41 122.46 72.88 118.58 72.88C114.7 72.88 112.26 70.5 112.26 66.33L112.24 66.33ZM120.89 66.33C120.89 64.09 120 62.77 118.62 62.77C117.24 62.77 116.36 64.04 116.36 66.33C116.36 68.63 117.22 69.88 118.62 69.88C120.02 69.88 120.92 68.63 120.92 66.35L120.89 66.33ZM126.58 57.1C126.56 56.69 126.66 56.28 126.88 55.92C127.1 55.57 127.42 55.29 127.8 55.12C128.17 54.95 128.6 54.89 129 54.96C129.42 55.03 129.79 55.22 130.09 55.51C130.39 55.8 130.6 56.17 130.69 56.57C130.78 56.98 130.74 57.4 130.59 57.78C130.43 58.17 130.17 58.5 129.82 58.73C129.48 58.96 129.07 59.09 128.66 59.09C128.39 59.09 128.13 59.05 127.88 58.95C127.63 58.86 127.41 58.71 127.22 58.53C127.02 58.35 126.87 58.13 126.77 57.88C126.66 57.64 126.6 57.38 126.6 57.11L126.58 57.1ZM126.58 60.09L130.7 60.09L130.7 72.58L126.64 72.58L126.58 60.09ZM145.53 66.33C145.53 70.4 143.71 72.76 140.6 72.76C139.8 72.81 139.01 72.61 138.33 72.19C137.65 71.78 137.11 71.17 136.79 70.44L136.71 70.44L136.71 76.59L132.64 76.59L132.64 60.13L136.69 60.13L136.69 62.36L136.77 62.36C137.08 61.61 137.61 60.98 138.29 60.55C138.97 60.12 139.77 59.91 140.57 59.95C143.77 59.92 145.61 62.27 145.61 66.35L145.53 66.33ZM141.38 66.33C141.38 64.36 140.46 63.08 139.02 63.08C137.59 63.08 136.69 64.35 136.68 66.33C136.66 68.32 137.59 69.58 139.02 69.58C140.46 69.58 141.46 68.4 141.46 66.35L141.38 66.33ZM152.49 59.8C155.9 59.8 158.02 61.41 158.05 63.99L154.33 63.99C154.33 63.09 153.58 62.53 152.46 62.53C151.35 62.53 150.81 62.96 150.81 63.61C150.81 64.26 151.28 64.46 152.22 64.65L154.84 65.18C157.37 65.71 158.39 66.73 158.39 68.61C158.39 71.15 156.04 72.87 152.55 72.87C149.06 72.87 146.79 71.2 146.63 68.65L150.57 68.65C150.69 69.58 151.42 70.12 152.62 70.12C153.81 70.12 154.37 69.74 154.37 69.07C154.37 68.4 153.99 68.28 153.01 68.08L150.65 67.59C148.2 67.07 146.92 65.79 146.92 63.88C146.99 61.39 149.13 59.81 152.56 59.81L152.49 59.8ZM172.03 72.57L168.08 72.57L168.08 70.22L168.01 70.22C167.79 71 167.31 71.69 166.64 72.16C165.98 72.63 165.18 72.86 164.37 72.82C163.75 72.84 163.14 72.73 162.57 72.5C162.01 72.26 161.49 71.92 161.07 71.47C160.65 71.03 160.32 70.5 160.12 69.92C159.92 69.34 159.84 68.73 159.89 68.12L159.89 60.1L163.96 60.1L163.96 67.25C163.96 68.72 164.73 69.51 166 69.51C166.3 69.51 166.59 69.45 166.86 69.32C167.13 69.19 167.37 69.01 167.57 68.79C167.76 68.56 167.9 68.3 167.99 68.01C168.07 67.73 168.09 67.43 168.05 67.13L168.05 60.1L172.11 60.1L172.03 72.57ZM174 60.09L177.96 60.09L177.96 62.5L178.05 62.5C178.26 61.72 178.73 61.05 179.38 60.57C180.02 60.09 180.81 59.84 181.61 59.86C182.42 59.79 183.22 60.02 183.86 60.51C184.51 61 184.94 61.71 185.09 62.51L185.27 62.51C185.52 61.71 186.03 61.02 186.72 60.54C187.41 60.06 188.23 59.82 189.07 59.86C189.63 59.84 190.19 59.94 190.7 60.14C191.22 60.35 191.69 60.67 192.07 61.07C192.46 61.47 192.76 61.95 192.95 62.47C193.14 62.99 193.21 63.55 193.17 64.1L193.17 72.58L189.07 72.58L189.07 65.14C189.07 63.88 188.48 63.17 187.32 63.17C187.07 63.16 186.81 63.21 186.58 63.32C186.34 63.42 186.13 63.57 185.96 63.76C185.79 63.95 185.67 64.18 185.59 64.43C185.52 64.67 185.5 64.93 185.53 65.18L185.53 72.58L181.65 72.58L181.65 65.11C181.65 63.84 181.03 63.17 179.91 63.17C179.65 63.16 179.4 63.22 179.16 63.32C178.92 63.43 178.71 63.58 178.54 63.78C178.37 63.97 178.24 64.2 178.16 64.44C178.09 64.69 178.06 64.95 178.1 65.21L178.1 72.58L174.02 72.58L174 60.09Z" fill="#1E1B1B" fill-opacity="1.000000" fill-rule="nonzero"/>
		<path id="Vector" d="M69.99 57.14C69.99 54.62 69.23 52.15 67.8 50.07C66.38 47.99 64.36 46.39 62 45.47C59.65 44.56 57.07 44.38 54.61 44.95C52.15 45.52 49.92 46.82 48.22 48.68L32.38 48.68L32.38 82.04L65.82 82.04L65.82 66.45C67.13 65.28 68.18 63.84 68.9 62.24C69.62 60.63 69.99 58.89 69.99 57.14ZM63.56 57.14C63.56 58.35 63.2 59.53 62.53 60.53C61.86 61.54 60.91 62.32 59.79 62.79C58.67 63.25 57.44 63.37 56.26 63.14C55.07 62.91 53.98 62.33 53.12 61.47C52.26 60.62 51.68 59.53 51.44 58.35C51.21 57.16 51.33 55.93 51.79 54.82C52.25 53.7 53.04 52.75 54.04 52.07C55.05 51.4 56.23 51.04 57.44 51.04C59.06 51.04 60.62 51.69 61.76 52.83C62.91 53.97 63.55 55.52 63.56 57.14ZM59.38 75.62L38.81 75.62L38.81 55.1L45.08 55.1C44.96 55.77 44.9 56.45 44.89 57.14C44.89 60.46 46.22 63.64 48.57 65.99C50.92 68.34 54.11 69.66 57.44 69.67C58.09 69.66 58.74 69.61 59.38 69.5L59.38 75.62Z" fill="#1E1B1B" fill-opacity="1.000000" fill-rule="nonzero"/>
	</g>
</svg>
