<svg width="224.392090" height="125.466553" viewBox="0 0 224.392 125.467" fill="none" xmlns="http://www.w3.org/2000/svg" xmlns:xlink="http://www.w3.org/1999/xlink">
	<desc>
			Created with Pixso.
	</desc>
	<defs>
		<clipPath id="clip482_1403">
			<rect id="logo-3" width="224.392090" height="125.466537" fill="white" fill-opacity="0"/>
		</clipPath>
	</defs>
	<rect id="logo-3" width="224.392090" height="125.466537" fill="#FFFFFF" fill-opacity="0"/>
	<g clip-path="url(#clip482_1403)">
		<path id="Vector" d="M85.67 72C84.92 72.04 84.18 71.83 83.56 71.4C83.31 71.21 83.1 70.96 82.96 70.67C82.82 70.39 82.76 70.07 82.77 69.75L82.77 58.12C82.76 58.07 82.77 58.02 82.78 57.98C82.8 57.93 82.83 57.89 82.86 57.85C82.9 57.82 82.94 57.79 82.99 57.78C83.04 57.76 83.09 57.75 83.14 57.76L85.26 57.76C85.5 57.76 85.61 57.89 85.61 58.12L85.61 68.85C85.61 69.33 85.82 69.57 86.27 69.57C86.45 69.57 86.64 69.55 86.82 69.5C87.07 69.5 87.21 69.58 87.22 69.8L87.41 71.37C87.42 71.42 87.42 71.47 87.41 71.51C87.4 71.56 87.38 71.6 87.35 71.64C87.32 71.67 87.29 71.7 87.25 71.73C87.2 71.75 87.16 71.76 87.11 71.76C86.65 71.91 86.16 72 85.67 72Z" fill="#1E1B1B" fill-opacity="1.000000" fill-rule="nonzero"/>
		<path id="Vector" d="M97.6 70.66C96.53 71.53 95.2 72.01 93.81 72.01C92.43 72.01 91.09 71.53 90.03 70.66C89.09 69.72 88.57 68.45 88.57 67.13C88.57 65.8 89.09 64.53 90.03 63.59C91.09 62.72 92.43 62.25 93.81 62.25C95.19 62.25 96.53 62.72 97.6 63.59C98.52 64.54 99.03 65.81 99.03 67.12C99.03 68.43 98.52 69.7 97.6 70.65L97.6 70.66ZM92.02 69C92.52 69.45 93.16 69.69 93.83 69.69C94.49 69.69 95.14 69.45 95.63 69C96.08 68.49 96.33 67.84 96.33 67.16C96.33 66.48 96.08 65.82 95.63 65.31C95.14 64.87 94.49 64.62 93.83 64.62C93.16 64.62 92.52 64.87 92.02 65.31C91.57 65.82 91.33 66.48 91.33 67.16C91.33 67.84 91.57 68.49 92.02 69Z" fill="#1E1B1B" fill-opacity="1.000000" fill-rule="nonzero"/>
		<path id="Vector" d="M110.7 62.57C110.94 62.57 111.06 62.69 111.06 62.93L111.06 71.93C111.08 72.53 110.96 73.14 110.72 73.69C110.48 74.25 110.11 74.75 109.65 75.15C108.63 76.01 107.32 76.46 105.98 76.4C104.77 76.45 103.58 76.12 102.56 75.46C102.13 75.18 101.76 74.81 101.47 74.38C101.19 73.95 101 73.46 100.91 72.95C100.91 72.7 100.91 72.59 101.25 72.59L103.37 72.59C103.46 72.59 103.55 72.62 103.62 72.67C103.69 72.72 103.75 72.8 103.79 72.88C103.92 73.26 104.2 73.58 104.56 73.77C104.99 73.99 105.48 74.11 105.97 74.1C106.27 74.11 106.56 74.07 106.84 73.97C107.12 73.87 107.38 73.72 107.6 73.52C107.8 73.31 107.95 73.06 108.06 72.79C108.16 72.53 108.2 72.24 108.19 71.95L108.19 71.16C107.43 71.71 106.51 72 105.56 71.98C104.91 72 104.25 71.89 103.63 71.66C103.02 71.42 102.45 71.06 101.98 70.61C101.07 69.67 100.56 68.42 100.56 67.12C100.56 65.82 101.07 64.57 101.98 63.63C102.46 63.18 103.02 62.83 103.63 62.59C104.25 62.36 104.91 62.25 105.56 62.28C106.53 62.25 107.48 62.56 108.25 63.14L108.25 62.94C108.25 62.89 108.25 62.84 108.27 62.8C108.28 62.75 108.31 62.71 108.34 62.68C108.38 62.64 108.42 62.61 108.46 62.6C108.51 62.58 108.56 62.57 108.61 62.58L110.7 62.57ZM105.8 69.74C106.13 69.75 106.45 69.69 106.75 69.56C107.05 69.43 107.32 69.24 107.53 69C107.95 68.46 108.18 67.8 108.18 67.12C108.18 66.44 107.95 65.78 107.53 65.24C107.32 65 107.05 64.81 106.76 64.68C106.46 64.56 106.14 64.5 105.82 64.51C105.49 64.5 105.16 64.56 104.86 64.69C104.56 64.82 104.28 65.01 104.06 65.25C103.6 65.77 103.35 66.44 103.38 67.13C103.36 67.82 103.6 68.49 104.05 69C104.27 69.24 104.54 69.43 104.85 69.56C105.15 69.69 105.48 69.75 105.8 69.74Z" fill="#1E1B1B" fill-opacity="1.000000" fill-rule="nonzero"/>
		<path id="Vector" d="M121.95 70.66C120.88 71.53 119.54 72 118.16 72C116.78 72 115.44 71.53 114.38 70.66C113.46 69.71 112.95 68.44 112.95 67.13C112.95 65.81 113.46 64.54 114.38 63.59C115.44 62.73 116.78 62.25 118.16 62.25C119.54 62.25 120.88 62.73 121.95 63.59C122.86 64.54 123.37 65.81 123.37 67.12C123.37 68.43 122.86 69.7 121.95 70.65L121.95 70.66ZM116.36 69C116.6 69.23 116.88 69.41 117.2 69.53C117.51 69.65 117.84 69.7 118.17 69.69C118.51 69.7 118.84 69.64 119.15 69.53C119.46 69.41 119.74 69.23 119.98 69C120.42 68.49 120.66 67.83 120.66 67.16C120.66 66.48 120.42 65.83 119.98 65.31C119.74 65.09 119.46 64.91 119.15 64.79C118.84 64.67 118.51 64.61 118.17 64.62C117.84 64.61 117.51 64.67 117.2 64.79C116.88 64.91 116.6 65.08 116.36 65.31C115.92 65.83 115.67 66.48 115.67 67.16C115.67 67.83 115.92 68.49 116.36 69Z" fill="#1E1B1B" fill-opacity="1.000000" fill-rule="nonzero"/>
		<path id="Vector" d="M127.93 60.43C127.6 60.72 127.17 60.88 126.73 60.88C126.28 60.88 125.85 60.72 125.52 60.43C125.37 60.29 125.25 60.12 125.17 59.93C125.08 59.74 125.04 59.54 125.04 59.33C125.04 59.12 125.08 58.92 125.17 58.73C125.25 58.54 125.37 58.37 125.52 58.22C125.86 57.94 126.28 57.79 126.73 57.79C127.17 57.79 127.59 57.94 127.93 58.22C128.08 58.37 128.2 58.54 128.28 58.73C128.37 58.92 128.41 59.12 128.41 59.33C128.41 59.54 128.37 59.74 128.28 59.93C128.2 60.12 128.08 60.29 127.93 60.43ZM128.2 72C127.45 72.04 126.7 71.83 126.09 71.4C125.84 71.21 125.63 70.96 125.5 70.67C125.36 70.38 125.29 70.07 125.31 69.75L125.31 62.93C125.3 62.88 125.3 62.83 125.32 62.78C125.34 62.74 125.36 62.69 125.4 62.66C125.43 62.62 125.48 62.6 125.52 62.58C125.57 62.56 125.62 62.56 125.67 62.57L127.79 62.57C128.03 62.57 128.14 62.69 128.14 62.93L128.14 68.85C128.14 69.33 128.36 69.57 128.79 69.57C128.98 69.57 129.17 69.55 129.36 69.5C129.61 69.5 129.75 69.58 129.76 69.8L129.95 71.37C129.96 71.42 129.96 71.47 129.95 71.51C129.94 71.56 129.92 71.6 129.89 71.64C129.86 71.67 129.82 71.7 129.78 71.72C129.74 71.75 129.69 71.76 129.65 71.76C129.18 71.92 128.69 72 128.2 72Z" fill="#1E1B1B" fill-opacity="1.000000" fill-rule="nonzero"/>
		<path id="Vector" d="M137.75 62.26C138.41 62.24 139.07 62.34 139.69 62.58C140.31 62.81 140.88 63.16 141.36 63.62C142.25 64.57 142.75 65.82 142.75 67.13C142.75 68.43 142.25 69.68 141.36 70.63C140.88 71.09 140.32 71.45 139.7 71.68C139.08 71.92 138.41 72.03 137.75 72C136.81 72.02 135.88 71.74 135.11 71.18L135.11 75.71C135.11 75.95 134.99 76.07 134.75 76.07L132.63 76.07C132.58 76.07 132.53 76.07 132.48 76.06C132.43 76.04 132.39 76.02 132.36 75.98C132.32 75.95 132.3 75.91 132.28 75.86C132.27 75.81 132.26 75.76 132.27 75.71L132.27 65.43C132.29 65.33 132.28 65.22 132.25 65.13C132.21 65.03 132.16 64.94 132.09 64.87C132.02 64.8 131.93 64.74 131.83 64.71C131.73 64.68 131.63 64.67 131.53 64.69L131.11 64.69C130.83 64.69 130.7 64.59 130.7 64.38L130.7 62.9C130.69 62.81 130.71 62.72 130.77 62.65C130.82 62.57 130.9 62.52 130.99 62.49C131.42 62.33 131.88 62.26 132.35 62.26C132.81 62.22 133.28 62.32 133.68 62.54C134.09 62.77 134.42 63.11 134.63 63.52C135.04 63.11 135.53 62.79 136.06 62.57C136.6 62.36 137.17 62.25 137.75 62.26ZM135.78 69C136.01 69.24 136.28 69.42 136.58 69.55C136.88 69.68 137.2 69.74 137.52 69.74C137.85 69.74 138.17 69.68 138.47 69.55C138.77 69.42 139.04 69.24 139.27 69C139.74 68.48 139.99 67.79 139.96 67.08C139.99 66.38 139.74 65.69 139.27 65.16C139.04 64.93 138.77 64.74 138.47 64.62C138.17 64.49 137.85 64.42 137.52 64.42C137.2 64.42 136.88 64.49 136.58 64.62C136.28 64.74 136.01 64.93 135.78 65.16C135.32 65.7 135.08 66.38 135.11 67.08C135.09 67.78 135.33 68.47 135.78 69Z" fill="#1E1B1B" fill-opacity="1.000000" fill-rule="nonzero"/>
		<path id="Vector" d="M148.71 72C147.57 72.05 146.45 71.78 145.46 71.22C145.07 70.99 144.73 70.66 144.48 70.28C144.22 69.89 144.06 69.46 144 69C144 68.75 144.09 68.63 144.36 68.63L146.22 68.63C146.31 68.63 146.39 68.66 146.47 68.71C146.54 68.75 146.6 68.82 146.64 68.9C146.9 69.58 147.6 69.92 148.71 69.92C149.09 69.94 149.48 69.86 149.83 69.69C149.95 69.64 150.05 69.55 150.13 69.44C150.21 69.34 150.25 69.21 150.26 69.08C150.26 68.75 150.06 68.52 149.65 68.37C149.17 68.22 148.68 68.11 148.18 68.06C147.58 67.99 146.99 67.89 146.41 67.75C145.84 67.62 145.33 67.33 144.93 66.91C144.7 66.62 144.53 66.29 144.43 65.94C144.33 65.58 144.3 65.21 144.35 64.84C144.4 64.48 144.53 64.13 144.72 63.81C144.92 63.5 145.17 63.23 145.48 63.02C146.39 62.44 147.45 62.16 148.53 62.21C149.57 62.18 150.61 62.44 151.51 62.95C151.87 63.16 152.19 63.44 152.43 63.78C152.67 64.12 152.83 64.51 152.9 64.92C152.9 65.17 152.78 65.3 152.56 65.3L150.69 65.3C150.61 65.31 150.53 65.29 150.46 65.25C150.4 65.21 150.34 65.15 150.31 65.07C150.18 64.78 149.95 64.54 149.65 64.41C149.32 64.24 148.95 64.15 148.57 64.16C148.2 64.14 147.83 64.21 147.5 64.37C147.38 64.42 147.28 64.5 147.2 64.6C147.13 64.7 147.09 64.82 147.09 64.95C147.1 65.12 147.16 65.29 147.27 65.42C147.38 65.55 147.53 65.65 147.7 65.69C148.18 65.87 148.69 66 149.2 66.07C149.79 66.14 150.38 66.25 150.95 66.39C151.52 66.52 152.03 66.81 152.43 67.23C152.64 67.46 152.81 67.74 152.91 68.03C153.02 68.33 153.07 68.64 153.05 68.95C153.06 69.39 152.96 69.81 152.75 70.2C152.55 70.58 152.24 70.9 151.87 71.13C150.93 71.74 149.83 72.04 148.71 72Z" fill="#1E1B1B" fill-opacity="1.000000" fill-rule="nonzero"/>
		<path id="Vector" d="M166.39 71.37C166.4 71.42 166.4 71.46 166.38 71.51C166.37 71.55 166.35 71.59 166.33 71.63C166.3 71.66 166.27 71.69 166.23 71.72C166.19 71.74 166.14 71.76 166.1 71.76C165.64 71.91 165.16 71.99 164.67 72C164.19 72.05 163.71 71.98 163.27 71.78C162.83 71.59 162.44 71.29 162.15 70.91C161.26 71.67 160.1 72.06 158.93 72C158.39 72.03 157.84 71.94 157.33 71.74C156.82 71.54 156.36 71.24 155.98 70.86C155.59 70.46 155.3 69.98 155.11 69.46C154.91 68.94 154.83 68.39 154.85 67.83L154.85 62.93C154.85 62.69 154.97 62.57 155.21 62.57L157.33 62.57C157.57 62.57 157.68 62.69 157.68 62.93L157.68 67.46C157.66 68.02 157.85 68.57 158.22 69C158.41 69.2 158.63 69.35 158.89 69.45C159.14 69.55 159.41 69.6 159.67 69.59C159.95 69.6 160.23 69.56 160.49 69.47C160.75 69.37 160.99 69.23 161.19 69.04C161.38 68.84 161.53 68.61 161.63 68.35C161.73 68.09 161.77 67.82 161.76 67.55L161.76 62.93C161.76 62.69 161.87 62.57 162.11 62.57L164.26 62.57C164.5 62.57 164.61 62.69 164.61 62.93L164.61 68.84C164.61 69.33 164.83 69.57 165.24 69.57C165.44 69.57 165.63 69.55 165.82 69.5C165.87 69.49 165.92 69.49 165.97 69.5C166.02 69.51 166.06 69.53 166.1 69.55C166.14 69.58 166.18 69.62 166.2 69.66C166.22 69.71 166.24 69.76 166.24 69.8L166.39 71.37Z" fill="#1E1B1B" fill-opacity="1.000000" fill-rule="nonzero"/>
		<path id="Vector" d="M186.45 71.37C186.46 71.42 186.46 71.46 186.45 71.51C186.44 71.56 186.42 71.6 186.39 71.64C186.37 71.67 186.33 71.7 186.29 71.73C186.25 71.75 186.2 71.76 186.16 71.76C185.69 71.91 185.2 71.99 184.7 72C183.95 72.04 183.21 71.83 182.6 71.4C182.33 71.21 182.11 70.97 181.97 70.68C181.82 70.39 181.74 70.08 181.75 69.75L181.75 66.81C181.78 66.24 181.59 65.69 181.22 65.26C181.04 65.07 180.82 64.91 180.58 64.81C180.34 64.71 180.07 64.66 179.81 64.67C179.57 64.66 179.33 64.71 179.11 64.8C178.89 64.9 178.7 65.04 178.54 65.23C178.21 65.65 178.04 66.17 178.07 66.71L178.07 71.34C178.07 71.57 177.95 71.7 177.71 71.7L175.58 71.7C175.53 71.71 175.48 71.7 175.43 71.68C175.38 71.67 175.34 71.64 175.31 71.61C175.27 71.57 175.24 71.53 175.23 71.48C175.21 71.43 175.21 71.38 175.21 71.34L175.21 66.81C175.24 66.25 175.07 65.7 174.72 65.26C174.57 65.08 174.37 64.93 174.16 64.83C173.94 64.73 173.7 64.67 173.46 64.67C173.2 64.66 172.94 64.71 172.7 64.8C172.47 64.9 172.25 65.04 172.07 65.23C171.71 65.63 171.52 66.16 171.55 66.71L171.55 71.34C171.56 71.38 171.55 71.43 171.54 71.48C171.52 71.53 171.49 71.57 171.46 71.61C171.42 71.64 171.38 71.67 171.33 71.68C171.29 71.7 171.24 71.71 171.19 71.7L169.13 71.7C168.89 71.7 168.78 71.57 168.78 71.34L168.78 65.43C168.79 65.33 168.78 65.22 168.75 65.13C168.72 65.03 168.66 64.94 168.59 64.87C168.52 64.8 168.43 64.74 168.33 64.71C168.24 64.68 168.13 64.67 168.03 64.69L167.61 64.69C167.34 64.69 167.2 64.59 167.2 64.38L167.2 62.9C167.19 62.81 167.22 62.72 167.27 62.65C167.32 62.57 167.4 62.52 167.49 62.49C167.92 62.33 168.39 62.26 168.85 62.26C169.3 62.23 169.74 62.31 170.14 62.52C170.54 62.72 170.87 63.04 171.1 63.42C171.52 63.02 172.03 62.71 172.58 62.51C173.13 62.31 173.72 62.23 174.3 62.26C174.87 62.24 175.44 62.34 175.96 62.57C176.48 62.8 176.94 63.15 177.3 63.59C177.71 63.14 178.23 62.79 178.8 62.56C179.37 62.33 179.99 62.23 180.6 62.26C181.15 62.24 181.7 62.33 182.22 62.52C182.73 62.72 183.2 63.02 183.59 63.41C183.98 63.81 184.27 64.28 184.47 64.8C184.66 65.32 184.75 65.88 184.72 66.43L184.72 68.85C184.72 69.33 184.93 69.57 185.34 69.57C185.53 69.58 185.73 69.55 185.92 69.5C186.18 69.5 186.32 69.6 186.33 69.8L186.45 71.37Z" fill="#1E1B1B" fill-opacity="1.000000" fill-rule="nonzero"/>
		<path id="Vector" d="M38.44 60.93C39.37 57.21 41.53 53.91 44.57 51.55C47.61 49.19 51.35 47.9 55.21 47.9C59.07 47.9 62.81 49.19 65.85 51.55C68.89 53.91 71.05 57.21 71.98 60.93L70.46 60.93C67.91 60.9 65.41 61.66 63.31 63.1C63.19 63.19 63.06 63.27 62.93 63.34L62.75 63.34C62.62 63.27 62.49 63.19 62.37 63.1C60.26 61.69 57.76 60.93 55.21 60.93C52.66 60.93 50.16 61.69 48.05 63.1C47.93 63.19 47.8 63.27 47.67 63.34L47.49 63.34C47.36 63.27 47.23 63.19 47.11 63.1C45.01 61.66 42.51 60.9 39.96 60.93L38.44 60.93ZM67.74 68.8C68.51 68.2 69.48 67.88 70.46 67.91L72.5 67.91L72.5 63.88L70.46 63.88C68.73 63.86 67.03 64.4 65.63 65.41C64.84 65.99 63.88 66.3 62.9 66.3C61.92 66.3 60.97 65.99 60.18 65.41C58.74 64.42 57.03 63.88 55.27 63.88C53.52 63.88 51.81 64.42 50.37 65.41C49.58 65.99 48.62 66.3 47.64 66.3C46.66 66.3 45.71 65.99 44.92 65.41C43.5 64.39 41.78 63.85 40.02 63.88L37.92 63.88L37.92 67.91L39.96 67.91C40.94 67.88 41.9 68.2 42.68 68.8C44.12 69.8 45.83 70.33 47.58 70.33C49.33 70.33 51.04 69.8 52.48 68.8C53.26 68.2 54.22 67.89 55.2 67.91C56.19 67.88 57.15 68.2 57.93 68.8C59.37 69.8 61.08 70.33 62.83 70.33C64.59 70.33 66.3 69.8 67.74 68.8ZM67.74 76C68.51 75.4 69.48 75.09 70.46 75.11L72.5 75.11L72.5 71.08L70.46 71.08C68.73 71.06 67.03 71.6 65.63 72.62C64.84 73.19 63.88 73.51 62.9 73.51C61.92 73.51 60.97 73.19 60.18 72.62C58.74 71.62 57.03 71.09 55.27 71.09C53.52 71.09 51.81 71.62 50.37 72.62C49.58 73.19 48.62 73.51 47.64 73.51C46.66 73.51 45.71 73.19 44.92 72.62C43.5 71.59 41.78 71.05 40.02 71.08L37.92 71.08L37.92 75.11L39.96 75.11C40.94 75.09 41.9 75.4 42.68 76C44.12 77 45.83 77.53 47.58 77.53C49.33 77.53 51.04 77 52.48 76C53.26 75.4 54.22 75.09 55.2 75.11C56.19 75.08 57.15 75.4 57.93 76C59.37 77 61.08 77.53 62.83 77.53C64.59 77.53 66.3 77 67.74 76Z" fill="#1E1B1B" fill-opacity="1.000000" fill-rule="nonzero"/>
	</g>
</svg>
