<svg width="225.598389" height="126.672852" viewBox="0 0 225.598 126.673" fill="none" xmlns="http://www.w3.org/2000/svg" xmlns:xlink="http://www.w3.org/1999/xlink">
	<desc>
			Created with Pixso.
	</desc>
	<defs>
		<clipPath id="clip482_1441">
			<rect id="logo-7 1" width="225.598495" height="126.672951" fill="white" fill-opacity="0"/>
		</clipPath>
	</defs>
	<rect id="logo-7 1" width="225.598495" height="126.672951" fill="#FFFFFF" fill-opacity="0"/>
	<g clip-path="url(#clip482_1441)">
		<path id="Vector" d="M81.04 55.82L84.85 55.82L84.85 71.19L81.04 71.19L81.04 55.82ZM86.36 65.38C86.36 61.58 88.7 59.32 92.3 59.32C95.9 59.32 98.24 61.58 98.24 65.38C98.24 69.18 95.95 71.46 92.3 71.46C88.65 71.46 86.36 69.25 86.36 65.38ZM94.42 65.38C94.42 63.29 93.59 62.06 92.3 62.06C91.01 62.06 90.19 63.33 90.19 65.38C90.19 67.44 90.99 68.68 92.3 68.68C93.61 68.68 94.42 67.51 94.42 65.4L94.42 65.38ZM99.67 71.93L103.33 71.93C103.5 72.32 103.8 72.64 104.17 72.84C104.54 73.05 104.96 73.13 105.38 73.07C106.83 73.07 107.59 72.29 107.59 71.15L107.59 69.02L107.52 69.02C107.21 69.67 106.72 70.22 106.1 70.59C105.49 70.96 104.77 71.14 104.05 71.1C101.27 71.1 99.43 68.98 99.43 65.35C99.43 61.71 101.18 59.42 104.1 59.42C104.84 59.39 105.58 59.59 106.2 59.98C106.83 60.38 107.32 60.96 107.6 61.65L107.6 59.53L111.41 59.53L111.41 71.06C111.41 73.83 108.96 75.56 105.35 75.56C101.98 75.56 99.89 74.05 99.67 71.95L99.67 71.93ZM107.6 65.37C107.6 63.52 106.75 62.36 105.41 62.36C104.06 62.36 103.24 63.51 103.24 65.37C103.24 67.23 104.05 68.28 105.41 68.28C106.77 68.28 107.6 67.26 107.6 65.38L107.6 65.37ZM112.85 65.37C112.85 61.57 115.18 59.3 118.78 59.3C122.39 59.3 124.74 61.57 124.74 65.37C124.74 69.17 122.45 71.45 118.78 71.45C115.12 71.45 112.85 69.25 112.85 65.38L112.85 65.37ZM120.9 65.37C120.9 63.28 120.08 62.05 118.78 62.05C117.49 62.05 116.74 63.33 116.74 65.4C116.74 67.46 117.54 68.69 118.83 68.69C120.13 68.69 120.9 67.51 120.9 65.4L120.9 65.37ZM126.18 56.77C126.17 56.39 126.28 56.01 126.48 55.68C126.69 55.36 126.99 55.1 127.34 54.95C127.69 54.79 128.08 54.74 128.46 54.81C128.84 54.88 129.19 55.05 129.46 55.32C129.74 55.58 129.94 55.92 130.02 56.3C130.1 56.67 130.07 57.06 129.93 57.42C129.79 57.78 129.55 58.09 129.24 58.31C128.92 58.53 128.55 58.65 128.16 58.66C127.91 58.67 127.65 58.64 127.41 58.55C127.17 58.47 126.95 58.33 126.76 58.16C126.58 57.98 126.43 57.77 126.33 57.54C126.23 57.3 126.18 57.05 126.18 56.8L126.18 56.77ZM126.18 59.56L129.99 59.56L129.99 71.19L126.18 71.19L126.18 59.56ZM143.81 65.37C143.81 69.17 142.12 71.34 139.23 71.34C138.49 71.38 137.75 71.2 137.11 70.82C136.48 70.43 135.97 69.86 135.67 69.18L135.6 69.18L135.6 74.91L131.79 74.91L131.79 59.53L135.6 59.53L135.6 61.61L135.67 61.61C135.96 60.92 136.45 60.33 137.08 59.93C137.71 59.53 138.45 59.33 139.2 59.37C142.12 59.42 143.86 61.6 143.86 65.4L143.81 65.37ZM140 65.37C140 63.52 139.15 62.34 137.82 62.34C136.49 62.34 135.64 63.53 135.62 65.37C135.61 67.21 136.49 68.39 137.82 68.39C139.15 68.39 140 67.23 140 65.4L140 65.37ZM150.34 59.29C153.5 59.29 155.42 60.79 155.51 63.18L152.04 63.18C152.04 62.36 151.36 61.84 150.31 61.84C149.25 61.84 148.78 62.24 148.78 62.84C148.78 63.43 149.2 63.62 150.05 63.8L152.49 64.29C154.81 64.79 155.8 65.73 155.8 67.49C155.8 69.89 153.6 71.44 150.37 71.44C147.13 71.44 145.01 69.89 144.85 67.52L148.52 67.52C148.63 68.39 149.32 68.89 150.43 68.89C151.55 68.89 152.06 68.53 152.06 67.92C152.06 67.31 151.7 67.18 150.79 66.99L148.59 66.52C146.32 66.05 145.13 64.85 145.13 63.08C145.15 60.8 147.2 59.32 150.34 59.32L150.34 59.29ZM168.5 71.16L164.84 71.16L164.84 68.99L164.76 68.99C164.56 69.72 164.11 70.36 163.5 70.8C162.88 71.24 162.14 71.46 161.38 71.41C160.81 71.45 160.23 71.35 159.69 71.14C159.15 70.94 158.66 70.61 158.25 70.2C157.85 69.78 157.54 69.29 157.34 68.74C157.15 68.2 157.07 67.62 157.12 67.04L157.12 59.53L160.93 59.53L160.93 66.17C160.93 67.55 161.64 68.28 162.82 68.28C163.09 68.28 163.37 68.23 163.62 68.11C163.87 68 164.1 67.83 164.28 67.63C164.46 67.42 164.6 67.17 164.68 66.91C164.76 66.65 164.78 66.37 164.75 66.09L164.75 59.53L168.55 59.53L168.5 71.16ZM170.34 59.53L174.02 59.53L174.02 61.77L174.1 61.77C174.3 61.06 174.74 60.43 175.33 59.98C175.93 59.54 176.66 59.3 177.41 59.32C178.17 59.26 178.92 59.48 179.52 59.95C180.12 60.42 180.52 61.1 180.65 61.85L180.72 61.85C180.95 61.09 181.43 60.43 182.08 59.97C182.73 59.51 183.51 59.28 184.3 59.32C184.82 59.3 185.33 59.39 185.81 59.58C186.29 59.78 186.73 60.07 187.09 60.45C187.45 60.82 187.72 61.26 187.9 61.75C188.07 62.23 188.15 62.75 188.11 63.27L188.11 71.19L184.3 71.19L184.3 64.28C184.3 63.01 183.73 62.43 182.66 62.43C182.43 62.43 182.19 62.48 181.97 62.58C181.76 62.67 181.56 62.81 181.41 62.99C181.25 63.17 181.13 63.38 181.06 63.61C180.99 63.83 180.97 64.07 181 64.31L181 71.19L177.39 71.19L177.39 64.23C177.39 63.07 176.81 62.43 175.77 62.43C175.53 62.43 175.3 62.48 175.08 62.58C174.86 62.68 174.66 62.82 174.5 63C174.34 63.18 174.22 63.39 174.15 63.62C174.08 63.85 174.06 64.09 174.09 64.33L174.09 71.19L170.28 71.19L170.34 59.53Z" fill="#1E1B1B" fill-opacity="1.000000" fill-rule="nonzero"/>
		<path id="Vector" d="M70.4 56.52C69.75 55.04 68.9 53.67 67.86 52.44C66.33 50.56 64.41 49.03 62.24 47.95C60.08 46.87 57.7 46.26 55.28 46.16C52.86 46.05 50.44 46.47 48.19 47.36C45.94 48.26 43.9 49.63 42.22 51.37C40.53 53.11 39.24 55.18 38.41 57.46C37.59 59.74 37.26 62.16 37.44 64.57C37.63 66.99 38.32 69.33 39.48 71.46C40.63 73.59 42.23 75.44 44.16 76.91C45.39 77.87 46.76 78.65 48.22 79.23C50.26 80.06 52.44 80.49 54.65 80.5C59.21 80.49 63.57 78.67 66.79 75.46C70.01 72.24 71.82 67.88 71.82 63.33C71.82 60.99 71.34 58.67 70.4 56.52ZM54.64 49.64C56.62 49.64 58.58 50.07 60.37 50.91C59.94 51.09 59.47 51.23 59 51.3C57.45 51.52 56.01 52.24 54.9 53.35C53.79 54.46 53.07 55.89 52.85 57.44C52.75 58.31 52.35 59.12 51.73 59.73C51.1 60.34 50.28 60.72 49.41 60.8C47.86 61.02 46.42 61.74 45.31 62.85C44.2 63.96 43.48 65.39 43.25 66.94C43.18 67.77 42.83 68.55 42.25 69.15C41.26 67.06 40.82 64.76 40.96 62.45C41.1 60.15 41.83 57.92 43.06 55.97C44.3 54.02 46.01 52.42 48.04 51.31C50.06 50.19 52.34 49.61 54.65 49.61L54.64 49.64ZM44.14 72.2C44.3 72.06 44.45 71.93 44.6 71.78C45.73 70.69 46.45 69.25 46.66 67.69C46.74 66.81 47.13 66 47.76 65.38C48.37 64.75 49.18 64.37 50.06 64.29C51.61 64.07 53.05 63.35 54.16 62.24C55.27 61.14 55.99 59.7 56.21 58.15C56.27 57.24 56.66 56.37 57.32 55.73C57.94 55.11 58.76 54.74 59.64 54.68C61.06 54.48 62.39 53.85 63.44 52.87C64.64 53.86 65.65 55.05 66.44 56.39C66.39 56.46 66.34 56.51 66.27 56.57C65.67 57.2 64.85 57.6 63.98 57.68C62.42 57.9 60.98 58.62 59.87 59.73C58.76 60.84 58.04 62.27 57.82 63.83C57.73 64.7 57.34 65.51 56.72 66.13C56.1 66.75 55.28 67.13 54.41 67.22C52.85 67.44 51.41 68.16 50.29 69.27C49.18 70.37 48.45 71.81 48.22 73.36C48.15 73.98 47.94 74.58 47.59 75.1C46.29 74.33 45.13 73.35 44.14 72.2ZM54.64 77.09C53.35 77.09 52.07 76.91 50.83 76.56C51.25 75.77 51.53 74.91 51.64 74.02C51.73 73.15 52.12 72.34 52.74 71.72C53.36 71.1 54.17 70.72 55.04 70.63C56.6 70.41 58.04 69.69 59.15 68.58C60.26 67.47 60.99 66.04 61.21 64.48C61.3 63.61 61.69 62.8 62.31 62.18C62.93 61.56 63.74 61.18 64.61 61.09C65.78 60.94 66.9 60.5 67.86 59.82C68.4 61.85 68.46 63.97 68.05 66.02C67.63 68.07 66.75 70 65.48 71.66C64.2 73.32 62.56 74.67 60.68 75.6C58.8 76.53 56.73 77.02 54.64 77.03L54.64 77.09Z" fill="#1E1B1B" fill-opacity="1.000000" fill-rule="nonzero"/>
	</g>
</svg>
