<svg width="224.392090" height="126.672852" viewBox="0 0 224.392 126.673" fill="none" xmlns="http://www.w3.org/2000/svg" xmlns:xlink="http://www.w3.org/1999/xlink">
	<desc>
			Created with Pixso.
	</desc>
	<defs>
		<clipPath id="clip482_1427">
			<rect id="logo-8 1" width="224.392090" height="126.672951" fill="white" fill-opacity="0"/>
		</clipPath>
	</defs>
	<rect id="logo-8 1" width="224.392090" height="126.672951" fill="#FFFFFF" fill-opacity="0"/>
	<g clip-path="url(#clip482_1427)">
		<path id="Vector" d="M52.27 61.27C51.8 61.75 51.43 62.33 51.2 62.98C50.97 63.62 50.89 64.3 50.95 64.98L50.93 64.96C51 65.75 50.89 66.56 50.62 67.31C50.34 68.06 49.91 68.74 49.34 69.31C48.78 69.88 48.1 70.31 47.35 70.59C46.6 70.86 45.8 70.97 45.01 70.9L45.03 70.92C44.08 70.84 43.12 71.04 42.29 71.52C41.47 72 40.8 72.72 40.4 73.58C39.99 74.45 39.86 75.42 40.03 76.37C40.19 77.31 40.64 78.18 41.32 78.86C41.99 79.54 42.86 79.99 43.8 80.15C44.74 80.32 45.71 80.19 46.58 79.78C47.44 79.37 48.16 78.71 48.63 77.87C49.1 77.04 49.31 76.08 49.22 75.13L49.25 75.15C49.18 74.35 49.29 73.55 49.56 72.8C49.83 72.05 50.27 71.36 50.83 70.8C51.4 70.23 52.08 69.79 52.83 69.52C53.57 69.24 54.37 69.14 55.17 69.2L55.15 69.18C55.92 69.25 56.7 69.12 57.42 68.81C58.13 68.5 58.76 68.01 59.23 67.39C59.71 66.77 60.02 66.03 60.14 65.26C60.26 64.49 60.18 63.7 59.92 62.96C59.65 62.23 59.2 61.57 58.61 61.05C58.03 60.54 57.32 60.18 56.56 60.01C55.8 59.84 55.01 59.87 54.26 60.09C53.51 60.31 52.83 60.71 52.28 61.27L52.27 61.27Z" fill="#1E1B1B" fill-opacity="1.000000" fill-rule="nonzero"/>
		<path id="Vector" d="M42.96 67.94L42.94 67.91C43.61 67.98 44.3 67.9 44.94 67.67C45.58 67.44 46.16 67.07 46.64 66.59C47.12 66.11 47.49 65.53 47.71 64.89C47.94 64.24 48.03 63.56 47.96 62.88L47.98 62.9C47.92 62.11 48.02 61.3 48.3 60.55C48.57 59.8 49.01 59.12 49.57 58.55C50.13 57.98 50.81 57.55 51.56 57.27C52.31 57 53.11 56.89 53.91 56.96L53.88 56.93C54.83 57.02 55.79 56.82 56.62 56.34C57.45 55.87 58.11 55.15 58.52 54.28C58.93 53.41 59.06 52.44 58.89 51.49C58.73 50.55 58.28 49.68 57.6 49C56.92 48.32 56.06 47.87 55.12 47.71C54.18 47.54 53.21 47.67 52.34 48.08C51.48 48.49 50.76 49.15 50.29 49.99C49.81 50.82 49.61 51.78 49.7 52.73L49.67 52.71C49.74 53.51 49.63 54.31 49.36 55.06C49.09 55.81 48.65 56.5 48.09 57.06C47.52 57.63 46.84 58.06 46.09 58.34C45.34 58.61 44.54 58.72 43.75 58.65L43.77 58.68C43.09 58.61 42.41 58.69 41.77 58.92C41.13 59.15 40.55 59.52 40.07 60C39.59 60.48 39.22 61.06 39 61.71C38.77 62.35 38.68 63.03 38.75 63.71L38.73 63.69C38.8 64.49 38.69 65.29 38.41 66.04C38.14 66.79 37.71 67.48 37.14 68.04C36.58 68.61 35.9 69.04 35.15 69.32C34.4 69.59 33.6 69.7 32.8 69.63L32.83 69.66C31.88 69.57 30.92 69.77 30.09 70.25C29.26 70.73 28.6 71.45 28.19 72.31C27.78 73.18 27.65 74.15 27.82 75.1C27.98 76.04 28.43 76.91 29.11 77.59C29.78 78.27 30.65 78.72 31.59 78.89C32.53 79.05 33.5 78.92 34.37 78.51C35.23 78.1 35.95 77.44 36.42 76.61C36.9 75.77 37.1 74.82 37.01 73.86L37.04 73.88C36.97 73.09 37.08 72.28 37.35 71.53C37.63 70.78 38.06 70.1 38.62 69.53C39.19 68.96 39.87 68.53 40.62 68.25C41.37 67.98 42.17 67.87 42.96 67.94Z" fill="#1E1B1B" fill-opacity="1.000000" fill-rule="nonzero"/>
		<path id="Vector" d="M34.5 65.39C34.98 64.91 35.35 64.33 35.58 63.69C35.8 63.05 35.89 62.36 35.82 61.68L35.85 61.71C35.78 60.91 35.89 60.11 36.16 59.35C36.44 58.6 36.87 57.92 37.43 57.35C38 56.79 38.68 56.35 39.43 56.08C40.18 55.8 40.98 55.69 41.77 55.76L41.75 55.74C42.7 55.83 43.66 55.62 44.49 55.15C45.31 54.67 45.98 53.95 46.38 53.08C46.79 52.22 46.92 51.24 46.75 50.3C46.59 49.36 46.14 48.49 45.46 47.81C44.79 47.13 43.92 46.68 42.98 46.51C42.04 46.35 41.07 46.48 40.21 46.89C39.34 47.29 38.63 47.96 38.15 48.79C37.68 49.62 37.47 50.58 37.56 51.54L37.54 51.51C37.61 52.31 37.5 53.11 37.23 53.87C36.95 54.62 36.52 55.3 35.95 55.87C35.39 56.43 34.71 56.87 33.96 57.14C33.21 57.42 32.41 57.53 31.61 57.46L31.64 57.48C30.86 57.41 30.08 57.54 29.36 57.85C28.65 58.17 28.03 58.66 27.55 59.28C27.08 59.9 26.76 60.63 26.64 61.4C26.53 62.18 26.6 62.97 26.87 63.7C27.14 64.44 27.58 65.09 28.17 65.61C28.76 66.13 29.46 66.49 30.22 66.65C30.99 66.82 31.78 66.8 32.53 66.58C33.27 66.36 33.96 65.95 34.51 65.39L34.5 65.39Z" fill="#1E1B1B" fill-opacity="1.000000" fill-rule="nonzero"/>
		<path id="Vector" d="M73.6 52.76L77.35 52.76L77.35 71.07L73.6 71.07L73.6 52.76Z" fill="#1E1B1B" fill-opacity="1.000000" fill-rule="nonzero"/>
		<path id="Vector" d="M79.47 64.8C79.47 63.48 79.85 62.2 80.58 61.1C81.3 60 82.33 59.15 83.54 58.64C84.75 58.13 86.09 58 87.37 58.25C88.66 58.5 89.84 59.14 90.77 60.06C91.7 60.99 92.33 62.18 92.59 63.47C92.85 64.76 92.72 66.09 92.22 67.31C91.72 68.53 90.87 69.57 89.78 70.3C88.69 71.03 87.41 71.42 86.1 71.42C85.23 71.43 84.36 71.27 83.56 70.94C82.75 70.61 82.02 70.12 81.4 69.5C80.79 68.89 80.3 68.15 79.97 67.35C79.64 66.54 79.47 65.67 79.47 64.8ZM88.97 64.8C88.96 64.23 88.77 63.68 88.45 63.22C88.12 62.75 87.67 62.4 87.14 62.19C86.62 61.99 86.04 61.94 85.49 62.06C84.94 62.18 84.43 62.46 84.04 62.87C83.64 63.27 83.38 63.79 83.27 64.35C83.17 64.9 83.23 65.48 83.45 66C83.67 66.53 84.04 66.97 84.51 67.28C84.98 67.6 85.53 67.77 86.1 67.77C86.48 67.78 86.87 67.71 87.23 67.56C87.59 67.41 87.91 67.19 88.18 66.91C88.45 66.64 88.66 66.3 88.8 65.94C88.93 65.58 88.99 65.19 88.97 64.8Z" fill="#1E1B1B" fill-opacity="1.000000" fill-rule="nonzero"/>
		<path id="Vector" d="M107.66 58.53L107.66 70.44C107.66 74.65 104.39 76.43 101.06 76.43C99.89 76.52 98.72 76.28 97.68 75.75C96.63 75.21 95.75 74.39 95.14 73.39L98.34 71.53C98.6 72.06 99.01 72.49 99.52 72.77C100.03 73.05 100.61 73.17 101.19 73.11C101.56 73.17 101.94 73.13 102.29 73.02C102.65 72.9 102.97 72.71 103.24 72.45C103.51 72.2 103.72 71.88 103.86 71.53C103.99 71.18 104.04 70.8 104.01 70.43L104.01 69.29C103.57 69.82 103.01 70.25 102.38 70.54C101.75 70.82 101.06 70.95 100.36 70.92C98.71 70.86 97.15 70.17 96 68.98C94.85 67.79 94.21 66.2 94.21 64.55C94.21 62.89 94.85 61.3 96 60.11C97.15 58.92 98.71 58.23 100.36 58.18C101.06 58.14 101.75 58.27 102.38 58.56C103.01 58.84 103.57 59.27 104.01 59.81L104.01 58.53L107.66 58.53ZM104.01 64.55C104.04 63.94 103.88 63.34 103.57 62.82C103.25 62.31 102.78 61.9 102.23 61.65C101.68 61.4 101.07 61.32 100.47 61.42C99.88 61.53 99.32 61.81 98.89 62.23C98.45 62.65 98.15 63.19 98.02 63.78C97.9 64.38 97.95 64.99 98.18 65.56C98.4 66.12 98.79 66.6 99.29 66.94C99.79 67.28 100.39 67.46 100.99 67.46C101.38 67.49 101.78 67.43 102.15 67.3C102.52 67.16 102.86 66.95 103.15 66.68C103.43 66.4 103.65 66.07 103.8 65.7C103.95 65.34 104.03 64.94 104.01 64.55Z" fill="#1E1B1B" fill-opacity="1.000000" fill-rule="nonzero"/>
		<path id="Vector" d="M109.78 64.8C109.78 63.48 110.16 62.2 110.89 61.1C111.61 60 112.64 59.15 113.85 58.64C115.06 58.13 116.4 58 117.68 58.25C118.97 58.5 120.15 59.14 121.08 60.06C122.01 60.99 122.64 62.18 122.9 63.47C123.16 64.76 123.03 66.09 122.53 67.31C122.03 68.53 121.18 69.57 120.09 70.3C119 71.03 117.72 71.42 116.41 71.42C115.54 71.43 114.67 71.27 113.87 70.94C113.06 70.61 112.33 70.12 111.71 69.5C111.09 68.89 110.61 68.15 110.28 67.35C109.94 66.54 109.78 65.67 109.78 64.8ZM119.28 64.8C119.27 64.23 119.08 63.68 118.76 63.22C118.43 62.75 117.98 62.4 117.45 62.19C116.93 61.99 116.35 61.94 115.8 62.06C115.24 62.18 114.74 62.46 114.35 62.87C113.95 63.27 113.69 63.79 113.58 64.35C113.48 64.9 113.54 65.48 113.76 66C113.98 66.53 114.35 66.97 114.82 67.28C115.29 67.6 115.84 67.77 116.41 67.77C116.79 67.78 117.18 67.71 117.54 67.56C117.9 67.41 118.22 67.19 118.49 66.91C118.76 66.64 118.97 66.3 119.11 65.94C119.24 65.58 119.3 65.19 119.28 64.8Z" fill="#1E1B1B" fill-opacity="1.000000" fill-rule="nonzero"/>
		<path id="Vector" d="M124.78 55.17C124.78 54.72 124.91 54.29 125.16 53.91C125.4 53.54 125.76 53.25 126.17 53.08C126.58 52.91 127.03 52.87 127.47 52.96C127.9 53.04 128.3 53.26 128.62 53.57C128.93 53.89 129.15 54.29 129.23 54.73C129.32 55.17 129.28 55.62 129.11 56.03C128.94 56.45 128.65 56.8 128.28 57.05C127.91 57.29 127.47 57.43 127.03 57.43C126.43 57.42 125.86 57.18 125.44 56.76C125.02 56.34 124.78 55.77 124.78 55.17ZM125.16 58.53L128.91 58.53L128.91 71.07L125.15 71.07L125.16 58.53Z" fill="#1E1B1B" fill-opacity="1.000000" fill-rule="nonzero"/>
		<path id="Vector" d="M145.09 64.8C145.14 65.63 145.02 66.46 144.74 67.24C144.46 68.02 144.03 68.74 143.48 69.36C142.92 69.97 142.25 70.47 141.5 70.82C140.76 71.18 139.95 71.38 139.12 71.42C138.43 71.46 137.73 71.34 137.09 71.08C136.44 70.81 135.87 70.41 135.4 69.89L135.4 76.09L131.65 76.09L131.65 58.53L135.4 58.53L135.4 59.71C135.87 59.19 136.44 58.79 137.09 58.52C137.73 58.26 138.43 58.14 139.12 58.18C139.95 58.22 140.76 58.42 141.5 58.77C142.25 59.13 142.92 59.63 143.48 60.24C144.03 60.86 144.46 61.58 144.74 62.36C145.02 63.14 145.14 63.97 145.09 64.8ZM141.34 64.8C141.33 64.21 141.14 63.64 140.81 63.16C140.47 62.68 140 62.31 139.46 62.1C138.91 61.88 138.32 61.83 137.75 61.96C137.17 62.08 136.65 62.37 136.24 62.79C135.83 63.21 135.56 63.74 135.45 64.32C135.34 64.9 135.4 65.49 135.63 66.03C135.86 66.58 136.24 67.04 136.73 67.36C137.22 67.69 137.79 67.86 138.37 67.86C138.77 67.88 139.17 67.81 139.55 67.66C139.92 67.51 140.26 67.29 140.54 67C140.82 66.71 141.04 66.36 141.18 65.98C141.32 65.61 141.37 65.2 141.34 64.8Z" fill="#1E1B1B" fill-opacity="1.000000" fill-rule="nonzero"/>
		<path id="Vector" d="M156.66 67.31C156.66 70.19 154.16 71.42 151.46 71.42C150.37 71.52 149.28 71.29 148.32 70.76C147.36 70.22 146.59 69.42 146.09 68.44L149.34 66.58C149.47 67.03 149.75 67.43 150.14 67.7C150.52 67.97 150.99 68.09 151.46 68.06C152.36 68.06 152.81 67.78 152.81 67.28C152.81 65.9 146.66 66.63 146.66 62.29C146.66 59.56 148.96 58.18 151.56 58.18C152.54 58.15 153.5 58.38 154.36 58.85C155.22 59.32 155.93 60.02 156.43 60.86L153.23 62.59C153.09 62.26 152.86 61.98 152.56 61.79C152.26 61.59 151.92 61.49 151.56 61.49C150.91 61.49 150.51 61.74 150.51 62.19C150.51 63.62 156.66 62.67 156.66 67.31Z" fill="#1E1B1B" fill-opacity="1.000000" fill-rule="nonzero"/>
		<path id="Vector" d="M170.36 58.53L170.36 71.07L166.61 71.07L166.61 69.89C166.17 70.41 165.62 70.82 165 71.09C164.38 71.35 163.71 71.47 163.03 71.42C160.51 71.42 158.36 69.62 158.36 66.23L158.36 58.53L162.11 58.53L162.11 65.68C162.08 65.98 162.12 66.28 162.21 66.56C162.31 66.85 162.47 67.11 162.67 67.32C162.88 67.54 163.13 67.71 163.41 67.82C163.69 67.93 163.99 67.97 164.29 67.96C165.66 67.96 166.61 67.15 166.61 65.37L166.61 58.53L170.36 58.53Z" fill="#1E1B1B" fill-opacity="1.000000" fill-rule="nonzero"/>
		<path id="Vector" d="M191.85 63.37L191.85 71.07L188.1 71.07L188.1 63.7C188.1 62.44 187.5 61.64 186.3 61.64C185.05 61.64 184.35 62.52 184.35 64L184.35 71.07L180.61 71.07L180.61 63.7C180.61 62.44 180.01 61.64 178.81 61.64C177.56 61.64 176.86 62.52 176.86 64L176.86 71.07L173.11 71.07L173.11 58.53L176.86 58.53L176.86 59.68C177.25 59.17 177.76 58.76 178.34 58.5C178.93 58.24 179.57 58.13 180.21 58.18C180.85 58.15 181.49 58.28 182.06 58.57C182.63 58.86 183.12 59.3 183.48 59.83C183.89 59.27 184.44 58.83 185.08 58.54C185.71 58.25 186.41 58.12 187.1 58.18C189.97 58.18 191.85 60.23 191.85 63.37Z" fill="#1E1B1B" fill-opacity="1.000000" fill-rule="nonzero"/>
		<path id="Vector" d="M197.8 55.66C197.8 57.2 196.56 58.45 195.02 58.45C193.48 58.45 192.24 57.2 192.24 55.66C192.24 54.12 193.48 52.87 195.02 52.87C196.56 52.87 197.8 54.12 197.8 55.66Z" fill="#1E1B1B" fill-opacity="1.000000" fill-rule="evenodd"/>
	</g>
</svg>
