<svg width="225.598389" height="127.879395" viewBox="0 0 225.598 127.879" fill="none" xmlns="http://www.w3.org/2000/svg" xmlns:xlink="http://www.w3.org/1999/xlink">
	<desc>
			Created with Pixso.
	</desc>
	<defs>
		<clipPath id="clip482_1414">
			<rect id="logo-6" width="225.598495" height="127.879356" fill="white" fill-opacity="0"/>
		</clipPath>
	</defs>
	<rect id="logo-6" width="225.598495" height="127.879356" fill="#FFFFFF" fill-opacity="0"/>
	<g clip-path="url(#clip482_1414)">
		<path id="Vector" d="M70.19 54.02L74 54.02L74 72.5L70.19 72.5L70.19 54.02Z" fill="#1E1B1B" fill-opacity="1.000000" fill-rule="nonzero"/>
		<path id="Vector" d="M76.13 66.17C76.13 64.84 76.53 63.54 77.26 62.44C77.99 61.33 79.04 60.47 80.26 59.97C81.47 59.46 82.82 59.33 84.11 59.59C85.4 59.85 86.59 60.5 87.52 61.44C88.45 62.38 89.08 63.58 89.33 64.89C89.59 66.19 89.45 67.54 88.94 68.77C88.43 69.99 87.57 71.04 86.47 71.77C85.37 72.51 84.08 72.89 82.76 72.89C81.88 72.89 81.02 72.72 80.21 72.39C79.4 72.05 78.66 71.56 78.05 70.93C77.43 70.31 76.94 69.56 76.61 68.75C76.28 67.93 76.12 67.05 76.13 66.17ZM85.68 66.17C85.66 65.6 85.48 65.04 85.15 64.57C84.83 64.1 84.37 63.74 83.84 63.53C83.31 63.33 82.73 63.28 82.17 63.4C81.62 63.52 81.11 63.8 80.71 64.21C80.31 64.63 80.05 65.14 79.94 65.71C79.84 66.27 79.9 66.85 80.12 67.38C80.34 67.91 80.71 68.36 81.18 68.68C81.66 69 82.21 69.16 82.78 69.16C83.17 69.17 83.56 69.1 83.91 68.95C84.27 68.8 84.6 68.58 84.86 68.3C85.13 68.02 85.34 67.68 85.48 67.32C85.61 66.95 85.67 66.56 85.65 66.17L85.68 66.17Z" fill="#1E1B1B" fill-opacity="1.000000" fill-rule="nonzero"/>
		<path id="Vector" d="M104.44 59.84L104.44 71.88C104.44 76.12 101.15 77.92 97.81 77.92C96.63 78.02 95.45 77.79 94.4 77.24C93.35 76.7 92.47 75.87 91.86 74.86L95.07 72.99C95.33 73.52 95.74 73.95 96.25 74.24C96.77 74.52 97.35 74.65 97.93 74.59C98.31 74.63 98.68 74.6 99.04 74.48C99.39 74.36 99.72 74.17 99.99 73.91C100.26 73.65 100.47 73.33 100.61 72.98C100.75 72.63 100.8 72.25 100.78 71.88L100.78 70.71C100.33 71.25 99.77 71.68 99.14 71.97C98.5 72.25 97.81 72.38 97.11 72.35C95.43 72.35 93.81 71.68 92.62 70.48C91.43 69.28 90.77 67.65 90.77 65.96C90.77 64.26 91.43 62.63 92.62 61.43C93.81 60.23 95.43 59.56 97.11 59.56C97.81 59.53 98.5 59.66 99.14 59.94C99.77 60.23 100.33 60.66 100.78 61.2L100.78 59.92L104.44 59.84ZM100.78 65.92C100.8 65.3 100.65 64.7 100.33 64.18C100.01 63.66 99.54 63.24 98.99 62.99C98.43 62.74 97.82 62.66 97.22 62.76C96.62 62.87 96.07 63.15 95.63 63.57C95.19 64 94.89 64.54 94.76 65.14C94.63 65.74 94.68 66.36 94.91 66.93C95.13 67.5 95.52 67.99 96.03 68.33C96.53 68.67 97.12 68.86 97.73 68.86C98.13 68.89 98.53 68.83 98.9 68.7C99.27 68.56 99.62 68.35 99.9 68.07C100.19 67.79 100.42 67.46 100.57 67.09C100.72 66.72 100.79 66.32 100.78 65.92Z" fill="#1E1B1B" fill-opacity="1.000000" fill-rule="nonzero"/>
		<path id="Vector" d="M106.59 66.17C106.59 64.84 106.98 63.55 107.71 62.44C108.45 61.34 109.49 60.48 110.7 59.97C111.92 59.46 113.26 59.33 114.56 59.59C115.85 59.85 117.04 60.49 117.97 61.43C118.9 62.37 119.53 63.57 119.79 64.87C120.04 66.17 119.91 67.52 119.4 68.75C118.9 69.98 118.04 71.02 116.94 71.76C115.85 72.5 114.56 72.89 113.24 72.89C112.36 72.89 111.49 72.73 110.68 72.39C109.87 72.06 109.13 71.56 108.51 70.94C107.89 70.31 107.4 69.57 107.07 68.75C106.74 67.93 106.58 67.06 106.59 66.17ZM116.13 66.17C116.12 65.6 115.93 65.04 115.61 64.57C115.28 64.1 114.82 63.74 114.29 63.53C113.76 63.32 113.18 63.28 112.62 63.4C112.07 63.52 111.56 63.81 111.16 64.22C110.77 64.63 110.5 65.15 110.4 65.72C110.29 66.28 110.35 66.86 110.58 67.39C110.8 67.92 111.17 68.37 111.65 68.68C112.12 69 112.68 69.17 113.25 69.16C113.64 69.17 114.02 69.1 114.38 68.95C114.74 68.8 115.06 68.58 115.33 68.3C115.6 68.02 115.81 67.68 115.95 67.32C116.08 66.95 116.14 66.56 116.12 66.17L116.13 66.17Z" fill="#1E1B1B" fill-opacity="1.000000" fill-rule="nonzero"/>
		<path id="Vector" d="M121.65 56.45C121.65 56 121.78 55.56 122.03 55.19C122.28 54.81 122.63 54.52 123.05 54.35C123.46 54.18 123.91 54.13 124.35 54.22C124.79 54.31 125.19 54.53 125.51 54.84C125.82 55.16 126.04 55.57 126.13 56.01C126.21 56.45 126.17 56.91 126 57.32C125.83 57.74 125.54 58.1 125.17 58.35C124.79 58.6 124.36 58.73 123.91 58.73C123.31 58.72 122.74 58.48 122.32 58.06C121.9 57.63 121.66 57.06 121.65 56.45ZM122.02 59.84L125.83 59.84L125.83 72.5L122.02 72.5L122.02 59.84Z" fill="#1E1B1B" fill-opacity="1.000000" fill-rule="nonzero"/>
		<path id="Vector" d="M142.12 66.17C142.16 67.01 142.04 67.86 141.76 68.65C141.48 69.44 141.04 70.17 140.48 70.8C139.92 71.42 139.24 71.93 138.48 72.29C137.72 72.64 136.9 72.85 136.07 72.89C135.36 72.93 134.65 72.82 133.99 72.55C133.33 72.28 132.74 71.87 132.26 71.34L132.26 77.59L128.45 77.59L128.45 59.84L132.26 59.84L132.26 61.03C132.74 60.5 133.33 60.09 133.99 59.83C134.65 59.56 135.36 59.45 136.07 59.5C136.9 59.54 137.72 59.74 138.47 60.09C139.23 60.45 139.9 60.95 140.47 61.57C141.03 62.19 141.46 62.92 141.75 63.71C142.03 64.5 142.16 65.33 142.12 66.17ZM138.31 66.17C138.3 65.58 138.11 65 137.77 64.52C137.43 64.03 136.96 63.65 136.41 63.44C135.86 63.22 135.26 63.17 134.68 63.3C134.11 63.43 133.58 63.72 133.17 64.15C132.76 64.57 132.48 65.11 132.38 65.7C132.27 66.28 132.33 66.88 132.56 67.43C132.79 67.98 133.18 68.44 133.67 68.77C134.17 69.1 134.74 69.27 135.33 69.27C135.74 69.28 136.14 69.22 136.51 69.07C136.89 68.91 137.23 68.69 137.51 68.39C137.79 68.1 138.01 67.75 138.15 67.37C138.29 66.99 138.34 66.58 138.31 66.17Z" fill="#1E1B1B" fill-opacity="1.000000" fill-rule="nonzero"/>
		<path id="Vector" d="M153.71 68.7C153.71 71.62 151.17 72.86 148.48 72.86C147.38 72.96 146.28 72.73 145.32 72.19C144.35 71.65 143.57 70.83 143.07 69.84L146.35 67.98C146.48 68.43 146.76 68.83 147.14 69.1C147.53 69.37 148 69.51 148.47 69.47C149.37 69.47 149.82 69.19 149.82 68.68C149.82 67.29 143.64 68.03 143.64 63.64C143.64 60.88 145.95 59.5 148.57 59.5C149.56 59.45 150.55 59.68 151.42 60.15C152.3 60.63 153.03 61.34 153.54 62.2L150.27 63.93C150.12 63.6 149.89 63.32 149.59 63.13C149.29 62.93 148.94 62.82 148.58 62.82C147.92 62.82 147.53 63.08 147.53 63.53C147.53 64.98 153.71 64.02 153.71 68.7Z" fill="#1E1B1B" fill-opacity="1.000000" fill-rule="nonzero"/>
		<path id="Vector" d="M167.5 59.84L167.5 72.5L163.69 72.5L163.69 71.31C163.26 71.84 162.71 72.26 162.09 72.53C161.47 72.8 160.79 72.93 160.12 72.89C157.58 72.89 155.41 71.06 155.41 67.64L155.41 59.84L159.21 59.84L159.21 67.07C159.18 67.37 159.22 67.67 159.32 67.96C159.42 68.25 159.58 68.51 159.78 68.73C159.99 68.95 160.25 69.12 160.53 69.23C160.81 69.34 161.11 69.39 161.41 69.37C162.78 69.37 163.74 68.55 163.74 66.81L163.74 59.84L167.5 59.84Z" fill="#1E1B1B" fill-opacity="1.000000" fill-rule="nonzero"/>
		<path id="Vector" d="M189.07 64.73L189.07 72.5L185.27 72.5L185.27 65.06C185.27 63.78 184.67 62.99 183.46 62.99C182.26 62.99 181.5 63.87 181.5 65.37L181.5 72.5L177.69 72.5L177.69 65.06C177.69 63.78 177.09 62.99 175.89 62.99C174.68 62.99 173.92 63.87 173.92 65.37L173.92 72.5L170.11 72.5L170.11 59.84L173.92 59.84L173.92 61.01C174.32 60.49 174.83 60.09 175.42 59.82C176.01 59.56 176.65 59.45 177.3 59.5C177.94 59.46 178.58 59.6 179.16 59.89C179.73 60.18 180.23 60.62 180.58 61.16C181 60.6 181.55 60.15 182.19 59.86C182.83 59.57 183.53 59.44 184.23 59.5C187.19 59.5 189.07 61.57 189.07 64.73Z" fill="#1E1B1B" fill-opacity="1.000000" fill-rule="nonzero"/>
		<path id="Vector" d="M47.52 50.7L47.52 45.26L30.51 45.26L30.51 82.61L47.52 82.61L47.52 77.17C44.04 77.17 40.69 75.78 38.23 73.29C35.77 70.81 34.38 67.44 34.38 63.93C34.38 60.42 35.77 57.06 38.23 54.58C40.69 52.09 44.04 50.7 47.52 50.7Z" fill="#1E1B1B" fill-opacity="1.000000" fill-rule="nonzero"/>
		<path id="Vector" d="M47.52 50.7L47.52 77.17C51 77.17 54.34 75.78 56.81 73.29C59.27 70.81 60.65 67.44 60.65 63.93C60.65 60.42 59.27 57.06 56.81 54.58C54.34 52.09 51 50.7 47.52 50.7Z" fill="#1E1B1B" fill-opacity="1.000000" fill-rule="nonzero"/>
		<path id="Vector" d="M195.06 56.95C195.06 58.51 193.81 59.77 192.27 59.77C190.73 59.77 189.48 58.51 189.48 56.95C189.48 55.4 190.73 54.14 192.27 54.14C193.81 54.14 195.06 55.4 195.06 56.95Z" fill="#1E1B1B" fill-opacity="1.000000" fill-rule="evenodd"/>
	</g>
</svg>
