<svg width="30.937500" height="30.937500" viewBox="0 0 30.9375 30.9375" fill="none" xmlns="http://www.w3.org/2000/svg" xmlns:xlink="http://www.w3.org/1999/xlink">
	<desc>
			Created with Pixso.
	</desc>
	<defs/>
	<path id="Icon" d="M26.4 4.53C23.48 1.6 19.6 0 15.46 0C11.33 0 7.45 1.6 4.53 4.53C1.6 7.45 0 11.33 0 15.46C0 19.6 1.6 23.48 4.53 26.4C7.45 29.32 11.33 30.93 15.46 30.93C19.6 30.93 23.48 29.32 26.4 26.4C29.32 23.48 30.93 19.6 30.93 15.46C30.93 11.33 29.32 7.45 26.4 4.53ZM15.46 28.52C8.27 28.52 2.41 22.66 2.41 15.46C2.41 8.27 8.27 2.41 15.46 2.41C22.66 2.41 28.52 8.27 28.52 15.46C28.52 22.66 22.66 28.52 15.46 28.52ZM17.78 16.15L22.18 20.53L20.47 22.24L16.02 17.81C15.84 17.86 15.66 17.88 15.46 17.88C14.13 17.88 13.05 16.8 13.05 15.46C13.05 14.59 13.51 13.83 14.19 13.41L14.19 4.89L15.4 4.89L16.61 4.89L16.61 13.34C17.37 13.75 17.88 14.54 17.88 15.46C17.88 15.7 17.85 15.94 17.78 16.15Z" fill="#E2E6E9" fill-opacity="1.000000" fill-rule="nonzero"/>
</svg>
