<svg viewBox="0 0 136 136" xmlns="http://www.w3.org/2000/svg" xmlns:xlink="http://www.w3.org/1999/xlink" width="136.000000" height="136.000000" fill="none">
	<rect id="Icon / Board" width="136.000000" height="136.000000" x="0.000000" y="0.000000" />
	<g id="Group">
		<path id="Vector" d="M67.7334 18.8011L67.7334 19.1618L39.2177 19.1618L39.2177 18.8011L41.1142 11.3333L65.8369 11.3333L67.7334 18.8011Z" fill="rgb(237,233,254)" fill-rule="nonzero" />
		<path id="Vector" d="M11.3333 18.8011L95.6203 18.8011L95.6203 124.667L11.3333 124.667L11.3333 18.8011Z" fill="rgb(76,29,149)" fill-rule="nonzero" />
		<path id="Vector" d="M18.9493 26.2007L87.9937 26.2007L87.9937 117.282L18.9493 117.282L18.9493 26.2007Z" fill="rgb(196,181,253)" fill-rule="nonzero" />
		<path id="Vector" d="M87.9937 26.2007L87.9937 111.7L39.7935 111.7C38.2315 111.7 36.6848 111.402 35.2418 110.823C33.7987 110.243 32.4877 109.394 31.3835 108.323C30.2794 107.253 29.4037 105.982 28.8067 104.583C28.2096 103.185 27.9028 101.686 27.9038 100.172L27.9038 26.2007L87.9937 26.2007Z" fill="rgb(167,139,250)" fill-rule="nonzero" />
		<path id="Vector" d="M28.3666 35.1357C27.808 35.1357 27.2723 35.3506 26.8771 35.7331C26.4819 36.1156 26.2595 36.6345 26.2588 37.1757L26.2588 47.6219C26.2595 48.1632 26.4819 48.6821 26.8771 49.0646C27.2723 49.4471 27.808 49.6619 28.3666 49.6619L39.1471 49.6619C39.7055 49.6619 40.2409 49.447 40.6358 49.0644C41.0306 48.6818 41.2524 48.1629 41.2524 47.6219L41.2524 37.3561C41.2524 37.0643 41.193 36.7754 41.0777 36.5058C40.9624 36.2363 40.7934 35.9914 40.5804 35.7852C40.3673 35.579 40.1144 35.4155 39.8361 35.3041C39.5578 35.1926 39.2596 35.1354 38.9585 35.1357L28.3666 35.1357ZM28.3666 64.1735C27.8076 64.1735 27.2715 64.3886 26.8762 64.7717C26.4809 65.1547 26.2588 65.6742 26.2588 66.2159L26.2588 76.6621C26.2595 77.2033 26.4819 77.7222 26.8771 78.1047C27.2723 78.4872 27.808 78.7021 28.3666 78.7021L39.1471 78.7021C39.7055 78.7021 40.2409 78.4871 40.6358 78.1046C41.0306 77.722 41.2524 77.2031 41.2524 76.6621L41.2524 66.3962C41.2524 65.8067 41.0107 65.2413 40.5805 64.8245C40.1503 64.4076 39.5668 64.1735 38.9585 64.1735L28.3666 64.1735ZM28.3666 92.7919C28.0899 92.7916 27.8159 92.8442 27.5602 92.9465C27.3045 93.0489 27.0721 93.1991 26.8763 93.3886C26.6806 93.578 26.5253 93.803 26.4193 94.0507C26.3134 94.2984 26.2588 94.5638 26.2588 94.8319L26.2588 105.29C26.2595 105.832 26.4819 106.35 26.8771 106.733C27.2723 107.115 27.808 107.33 28.3666 107.33L39.1471 107.33C39.7055 107.33 40.2409 107.115 40.6358 106.733C41.0306 106.35 41.2524 105.831 41.2524 105.29L41.2524 95.0123C41.2524 94.7205 41.193 94.4316 41.0777 94.1621C40.9624 93.8925 40.7934 93.6476 40.5804 93.4414C40.3673 93.2352 40.1144 93.0717 39.8361 92.9603C39.5578 92.8488 39.2596 92.7916 38.9585 92.7919L28.3666 92.7919Z" fill="rgb(109,40,217)" fill-rule="nonzero" />
		<g id="Group">
			<path id="Vector" d="M79.1701 44.1608L64.2972 44.1608C63.7969 44.1608 63.3171 43.9682 62.9633 43.6254C62.6095 43.2826 62.4108 42.8177 62.4108 42.3329C62.4108 41.8481 62.6095 41.3831 62.9633 41.0403C63.3171 40.6975 63.7969 40.5049 64.2972 40.5049L79.1701 40.5049C79.6704 40.5049 80.1502 40.6975 80.504 41.0403C80.8578 41.3831 81.0565 41.8481 81.0565 42.3329C81.0565 42.8177 80.8578 43.2826 80.504 43.6254C80.1502 43.9682 79.6704 44.1608 79.1701 44.1608ZM56.681 44.1608L49.0345 44.1608C48.5342 44.1608 48.0544 43.9682 47.7006 43.6254C47.3468 43.2826 47.1481 42.8177 47.1481 42.3329C47.1481 41.8481 47.3468 41.3831 47.7006 41.0403C48.0544 40.6975 48.5342 40.5049 49.0345 40.5049L56.681 40.5049C57.1813 40.5049 57.6611 40.6975 58.0149 41.0403C58.3687 41.3831 58.5674 41.8481 58.5674 42.3329C58.5674 42.8177 58.3687 43.2826 58.0149 43.6254C57.6611 43.9682 57.1813 44.1608 56.681 44.1608ZM79.1701 72.4649L71.8003 72.4649C71.3 72.4649 70.8202 72.2723 70.4664 71.9295C70.1126 71.5867 69.9139 71.1217 69.9139 70.6369C69.9139 70.1521 70.1126 69.6872 70.4664 69.3444C70.8202 69.0016 71.3 68.809 71.8003 68.809L79.1701 68.809C79.6704 68.809 80.1502 69.0016 80.504 69.3444C80.8578 69.6872 81.0565 70.1521 81.0565 70.6369C81.0565 71.1217 80.8578 71.5867 80.504 71.9295C80.1502 72.2723 79.6704 72.4649 79.1701 72.4649ZM64.1212 72.4649L49.0295 72.4649C48.5292 72.4649 48.0494 72.2723 47.6956 71.9295C47.3418 71.5867 47.1431 71.1217 47.1431 70.6369C47.1431 70.1521 47.3418 69.6872 47.6956 69.3444C48.0494 69.0016 48.5292 68.809 49.0295 68.809L64.1212 68.809C64.6215 68.809 65.1013 69.0016 65.4551 69.3444C65.8089 69.6872 66.0076 70.1521 66.0076 70.6369C66.0076 71.1217 65.8089 71.5867 65.4551 71.9295C65.1013 72.2723 64.6215 72.4649 64.1212 72.4649ZM35.0496 45.5988L34.9767 45.5988C34.727 45.589 34.4817 45.5314 34.2551 45.4293C34.0284 45.3273 33.8249 45.1828 33.6561 45.0041L31.3195 42.5181C31.1526 42.3409 31.0235 42.1337 30.9393 41.9081C30.8552 41.6826 30.8177 41.4432 30.829 41.2037C30.8404 40.9641 30.9003 40.7291 31.0054 40.5119C31.1104 40.2948 31.2586 40.0999 31.4414 39.9382C31.6243 39.7766 31.8382 39.6514 32.0709 39.5699C32.3037 39.4884 32.5507 39.4521 32.7979 39.463C33.0452 39.474 33.2877 39.5321 33.5118 39.6339C33.7359 39.7357 33.9371 39.8793 34.1039 40.0564L35.1553 41.1703L45.0252 32.2035C45.3898 31.8723 45.8752 31.6949 46.3747 31.7104C46.8743 31.726 47.347 31.9331 47.6889 32.2864C48.0308 32.6397 48.2138 33.1101 48.1978 33.5941C48.1817 34.0782 47.9679 34.5362 47.6034 34.8675L36.3399 45.104C35.9907 45.4225 35.5291 45.5995 35.0496 45.5988ZM35.0496 74.6365L34.9767 74.6365C34.727 74.6267 34.4817 74.5691 34.2551 74.4671C34.0284 74.365 33.8249 74.2205 33.6561 74.0418L31.3195 71.5558C31.1526 71.3786 31.0235 71.1714 30.9393 70.9459C30.8552 70.7203 30.8177 70.4809 30.829 70.2414C30.8404 70.0018 30.9003 69.7668 31.0054 69.5496C31.1104 69.3325 31.2586 69.1376 31.4414 68.9759C31.6243 68.8143 31.8382 68.6891 32.0709 68.6076C32.3037 68.5261 32.5507 68.4898 32.7979 68.5007C33.0452 68.5117 33.2877 68.5698 33.5118 68.6716C33.7359 68.7734 33.9371 68.917 34.1039 69.0941L35.1553 70.208L45.0252 61.2412C45.3898 60.91 45.8752 60.7326 46.3747 60.7481C46.8743 60.7637 47.347 60.9709 47.6889 61.3241C48.0308 61.6774 48.2138 62.1478 48.1978 62.6318C48.1817 63.1159 47.9679 63.5739 47.6034 63.9052L36.3399 74.1418C35.9909 74.4604 35.5292 74.6374 35.0496 74.6365ZM35.0496 103.253L34.9767 103.253C34.727 103.243 34.4817 103.185 34.2551 103.083C34.0284 102.981 33.8249 102.837 33.6561 102.658L31.3119 100.172C31.1353 99.9964 30.9969 99.7883 30.9049 99.56C30.813 99.3316 30.7693 99.0877 30.7766 98.8427C30.7839 98.5977 30.842 98.3566 30.9474 98.1338C31.0528 97.911 31.2034 97.711 31.3901 97.5457C31.5769 97.3804 31.7961 97.2532 32.0346 97.1717C32.2732 97.0901 32.5262 97.0559 32.7787 97.071C33.0312 97.0861 33.2779 97.1503 33.5043 97.2597C33.7306 97.3691 33.932 97.5215 34.0963 97.7078L35.1477 98.8216L45.0176 89.8524C45.3858 89.54 45.8648 89.3785 46.3535 89.4019C46.8423 89.4253 47.3025 89.6318 47.6371 89.9778C47.9717 90.3238 48.1544 90.7823 48.1467 91.2564C48.139 91.7305 47.9415 92.1832 47.5958 92.5188L36.3324 102.755C35.9856 103.073 35.5269 103.251 35.0496 103.253ZM79.6631 101.827L64.7928 101.827C64.2924 101.827 63.8126 101.634 63.4588 101.291C63.105 100.949 62.9063 100.484 62.9063 99.9988C62.9063 99.514 63.105 99.0491 63.4588 98.7063C63.8126 98.3634 64.2924 98.1709 64.7928 98.1709L79.6631 98.1709C80.1634 98.1709 80.6432 98.3634 80.997 98.7063C81.3508 99.0491 81.5495 99.514 81.5495 99.9988C81.5495 100.484 81.3508 100.949 80.997 101.291C80.6432 101.634 80.1634 101.827 79.6631 101.827ZM57.1664 101.827L49.5275 101.827C49.0272 101.827 48.5474 101.634 48.1936 101.291C47.8398 100.949 47.6411 100.484 47.6411 99.9988C47.6411 99.514 47.8398 99.0491 48.1936 98.7063C48.5474 98.3634 49.0272 98.1709 49.5275 98.1709L57.1664 98.1709C57.6668 98.1709 58.1466 98.3634 58.5004 98.7063C58.8541 99.0491 59.0529 99.514 59.0529 99.9988C59.0529 100.484 58.8541 100.949 58.5004 101.291C58.1466 101.634 57.6668 101.827 57.1664 101.827Z" fill="rgb(237,233,254)" fill-rule="nonzero" />
		</g>
		<path id="Vector" d="M124.667 61.5899C124.667 62.0747 124.468 62.5396 124.114 62.8824C123.761 63.2252 123.281 63.4178 122.78 63.4178C122.28 63.4178 121.8 63.2252 121.446 62.8824C121.093 62.5396 120.894 62.0747 120.894 61.5899L120.894 44.8702C120.768 44.4558 120.265 43.4809 118.052 43.4809L116.155 43.4809L116.155 40.1418C116.159 40.0356 116.151 39.9293 116.13 39.825L118.054 39.825C119.556 39.6515 121.07 40.035 122.293 40.8985C123.515 41.7619 124.355 43.0415 124.644 44.4802L124.667 61.5899ZM116.291 105.9L110.581 124.667L104.846 105.9L116.291 105.9Z" fill="rgb(109,40,217)" fill-rule="nonzero" />
		<path id="Vector" d="M104.846 61.59L116.291 61.59L116.291 105.9L104.846 105.9L104.846 61.59Z" fill="rgb(196,181,253)" fill-rule="nonzero" />
		<path id="Vector" d="M116.293 40.1417L116.293 61.5898L104.849 61.5898L104.849 40.1417C104.849 38.6712 105.451 37.2608 106.525 36.221C107.598 35.1811 109.053 34.5969 110.571 34.5969C112.088 34.5969 113.544 35.1811 114.617 36.221C115.69 37.2608 116.293 38.6712 116.293 40.1417Z" fill="rgb(109,40,217)" fill-rule="nonzero" />
		<path id="Vector" d="M116.291 105.9L110.581 124.667L110.581 105.9L116.291 105.9Z" fill="rgb(124,58,237)" fill-rule="nonzero" />
		<path id="Vector" d="M110.581 61.59L116.291 61.59L116.291 105.9L110.581 105.9L110.581 61.59Z" fill="rgb(167,139,250)" fill-rule="nonzero" />
		<path id="Vector" d="M116.293 40.142L116.293 61.59L110.584 61.59L110.584 34.6094C112.04 34.6086 113.441 35.149 114.499 36.1193C115.556 37.0896 116.19 38.416 116.268 39.8251C116.289 39.9295 116.298 40.0358 116.293 40.142Z" fill="rgb(124,58,237)" fill-rule="nonzero" />
	</g>
</svg>
