<svg viewBox="0 0 136 136" xmlns="http://www.w3.org/2000/svg" xmlns:xlink="http://www.w3.org/1999/xlink" width="136.000000" height="136.000000" fill="none">
	<rect id="Icon / Package" width="136.000000" height="136.000000" x="0.000000" y="0.000000" />
	<g id="Group">
		<path id="Vector" d="M64.6489 11.3333L11.3333 38.2847L11.3333 100.196L72.0654 124.667L72.0898 124.667L72.0898 124.654L124.667 93.6962L124.667 31.7942L64.6489 11.3333Z" fill="rgb(221,214,254)" fill-rule="nonzero" />
		<path id="Vector" d="M124.667 31.7942L64.6489 11.3333L11.3333 38.2847L11.3333 100.196L72.0654 124.667L72.0898 124.667L72.0898 62.7355L72.0776 62.7306L124.667 31.7942Z" fill="rgb(196,181,253)" fill-rule="nonzero" />
		<path id="Vector" d="M72.0898 62.7354L72.0898 124.667L72.0655 124.667L11.3333 100.196L11.3333 38.2896L18.4768 41.1655L72.0898 62.7354Z" fill="rgb(139,92,246)" fill-rule="nonzero" />
		<path id="Vector" d="M72.0898 62.7354L72.0898 116.161L32.1348 100.05C28.1016 98.4223 24.6469 95.6268 22.2142 92.0223C19.7815 88.4178 18.4817 84.1689 18.4817 79.8207L18.4817 41.1655L72.0898 62.7354Z" fill="rgb(167,139,250)" fill-rule="nonzero" />
		<path id="Vector" d="M99.1284 23.0809L98.0557 23.6659L46.1737 52.3038L46.0762 72.2164L37.8599 69.1454L32.4962 67.1225L32.4962 46.82L86.5724 18.8157L99.1284 23.0809Z" fill="rgb(91,33,182)" fill-rule="nonzero" />
		<path id="Vector" d="M98.1158 23.6659L46.2338 52.3039L46.1363 72.2165L37.92 69.1455L37.92 49.5985L92.0207 21.5942L98.1158 23.6659Z" fill="rgb(109,40,217)" fill-rule="nonzero" />
	</g>
</svg>
