<?xml version="1.0" encoding="UTF-8"?>
<!DOCTYPE svg PUBLIC "-//W3C//DTD SVG 1.1//EN" "http://www.w3.org/Graphics/SVG/1.1/DTD/svg11.dtd">
<svg xmlns="http://www.w3.org/2000/svg" version="1.1" width="50px" height="74px" style="shape-rendering:geometricPrecision; text-rendering:geometricPrecision; image-rendering:optimizeQuality; fill-rule:evenodd; clip-rule:evenodd" xmlns:xlink="http://www.w3.org/1999/xlink">
<g><path style="opacity:0.958" fill="#a68af9" d="M 20.5,-0.5 C 30.1667,-0.5 39.8333,-0.5 49.5,-0.5C 49.5,4.5 49.5,9.5 49.5,14.5C 48.0226,16.807 46.0226,18.6403 43.5,20C 36.5079,20.4996 29.5079,20.6663 22.5,20.5C 22.5,18.5 22.5,16.5 22.5,14.5C 28.1764,14.6661 33.8431,14.4994 39.5,14C 43.0511,12.3229 44.3845,9.48956 43.5,5.5C 36.825,5.33375 30.1583,5.50042 23.5,6C 23,6.5 22.5,7 22,7.5C 21.6667,26.1667 21.3333,44.8333 21,63.5C 20.5648,68.0552 18.3982,71.3885 14.5,73.5C 9.5,73.5 4.5,73.5 -0.5,73.5C -0.5,65.8333 -0.5,58.1667 -0.5,50.5C 3.29302,45.7849 8.29302,43.7849 14.5,44.5C 14.5,41.5 14.5,38.5 14.5,35.5C 9.5,35.5 4.5,35.5 -0.5,35.5C -0.5,30.5 -0.5,25.5 -0.5,20.5C 2.96233,15.0807 7.96233,13.0807 14.5,14.5C 13.512,8.16253 15.512,3.16253 20.5,-0.5 Z M 9.5,20.5 C 11.1667,20.5 12.8333,20.5 14.5,20.5C 14.5,23.5 14.5,26.5 14.5,29.5C 11.5,29.5 8.5,29.5 5.5,29.5C 4.65814,25.3791 5.99148,22.3791 9.5,20.5 Z M 7.5,51.5 C 9.83333,51.5 12.1667,51.5 14.5,51.5C 14.7768,56.2332 14.4435,60.8999 13.5,65.5C 11.1489,67.2289 8.48223,67.8956 5.5,67.5C 5.00077,61.9415 5.66743,56.6082 7.5,51.5 Z"/></g>
<g><path style="opacity:0.932" fill="#a68af9" d="M 22.5,29.5 C 28.8333,29.5 35.1667,29.5 41.5,29.5C 44.3181,45.0043 37.9847,52.3376 22.5,51.5C 22.5,49.1667 22.5,46.8333 22.5,44.5C 25.8499,44.665 29.1832,44.4983 32.5,44C 34.1793,41.4355 34.846,38.6021 34.5,35.5C 30.5,35.5 26.5,35.5 22.5,35.5C 22.5,33.5 22.5,31.5 22.5,29.5 Z"/></g>
</svg>
